STARTFONT 2.1
FONT -Adobe-New Century Schoolbook-Bold-R-Normal--14-140-75-75-P-87-ISO10646-1
SIZE 14 75 75
FONTBOUNDINGBOX 20 25 -2 -6
COMMENT $XFree86$
COMMENT ISO10646-1 extension by Markus Kuhn <mkuhn@acm.org>, 2001-03-20
COMMENT 
COMMENT +
COMMENT  Copyright 1984-1989, 1994 Adobe Systems Incorporated.
COMMENT  Copyright 1988, 1994 Digital Equipment Corporation.
COMMENT
COMMENT  Adobe is a trademark of Adobe Systems Incorporated which may be
COMMENT  registered in certain jurisdictions.
COMMENT  Permission to use these trademarks is hereby granted only in
COMMENT  association with the images described in this file.
COMMENT
COMMENT  Permission to use, copy, modify, distribute and sell this software
COMMENT  and its documentation for any purpose and without fee is hereby
COMMENT  granted, provided that the above copyright notices appear in all
COMMENT  copies and that both those copyright notices and this permission
COMMENT  notice appear in supporting documentation, and that the names of
COMMENT  Adobe Systems and Digital Equipment Corporation not be used in
COMMENT  advertising or publicity pertaining to distribution of the software
COMMENT  without specific, written prior permission.  Adobe Systems and
COMMENT  Digital Equipment Corporation make no representations about the
COMMENT  suitability of this software for any purpose.  It is provided "as
COMMENT  is" without express or implied warranty.
COMMENT -
STARTPROPERTIES 26
FOUNDRY "Adobe"
FAMILY_NAME "New Century Schoolbook"
WEIGHT_NAME "Bold"
SLANT "R"
SETWIDTH_NAME "Normal"
ADD_STYLE_NAME ""
PIXEL_SIZE 14
POINT_SIZE 140
RESOLUTION_X 75
RESOLUTION_Y 75
SPACING "P"
AVERAGE_WIDTH 87
CHARSET_REGISTRY "ISO10646"
CHARSET_ENCODING "1"
CAP_HEIGHT 11
X_HEIGHT 7
FONT_ASCENT 13
FONT_DESCENT 3
FACE_NAME "New Century Schoolbook Bold"
COPYRIGHT "Copyright (c) 1984, 1987 Adobe Systems Incorporated. All Rights Reserved. Copyright (c) 1988, 1991 Digital Equipment Corporation. All Rights Reserved."

STARTCHAR char0
ENCODING 0
SWIDTH 870 0
DWIDTH 12 0
BBX 11 11 0 0
BITMAP
AAA0
0000
8020
0000
8020
0000
8020
0000
8020
0000
AAA0
ENDCHAR
STARTCHAR space
ENCODING 32
SWIDTH 287 0
DWIDTH 4 0
BBX 1 1 0 0
BITMAP
00
ENDCHAR
STARTCHAR exclam
ENCODING 33
SWIDTH 296 0
DWIDTH 4 0
BBX 2 11 1 0
BITMAP
C0
C0
C0
C0
C0
80
80
00
C0
C0
C0
ENDCHAR
STARTCHAR quotedbl
ENCODING 34
SWIDTH 333 0
DWIDTH 5 0
BBX 3 4 1 7
BITMAP
A0
A0
A0
A0
ENDCHAR
STARTCHAR numbersign
ENCODING 35
SWIDTH 574 0
DWIDTH 8 0
BBX 7 10 0 0
BITMAP
14
14
14
7E
28
28
FC
50
50
50
ENDCHAR
STARTCHAR dollar
ENCODING 36
SWIDTH 574 0
DWIDTH 8 0
BBX 7 13 0 -1
BITMAP
10
7C
D6
96
D0
F0
7C
1E
16
D2
D6
7C
10
ENDCHAR
STARTCHAR percent
ENCODING 37
SWIDTH 833 0
DWIDTH 13 0
BBX 12 11 0 0
BITMAP
3080
6F00
C900
CA00
D200
6460
04D0
0990
0990
11A0
10C0
ENDCHAR
STARTCHAR ampersand
ENCODING 38
SWIDTH 852 0
DWIDTH 13 0
BBX 12 11 0 0
BITMAP
1E00
3300
3300
3200
1C00
3CE0
4E40
C780
C390
E3E0
7CC0
ENDCHAR
STARTCHAR quotesingle
ENCODING 39
SWIDTH 241 0
DWIDTH 3 0
BBX 2 4 0 7
BITMAP
C0
C0
C0
80
ENDCHAR
STARTCHAR parenleft
ENCODING 40
SWIDTH 389 0
DWIDTH 5 0
BBX 4 13 0 -2
BITMAP
10
20
60
40
C0
C0
C0
C0
C0
40
60
20
10
ENDCHAR
STARTCHAR parenright
ENCODING 41
SWIDTH 389 0
DWIDTH 5 0
BBX 4 13 0 -2
BITMAP
80
40
60
20
30
30
30
30
30
20
60
40
80
ENDCHAR
STARTCHAR asterisk
ENCODING 42
SWIDTH 500 0
DWIDTH 6 0
BBX 5 5 0 6
BITMAP
20
A8
70
A8
20
ENDCHAR
STARTCHAR plus
ENCODING 43
SWIDTH 606 0
DWIDTH 8 0
BBX 7 7 0 1
BITMAP
10
10
10
FE
10
10
10
ENDCHAR
STARTCHAR comma
ENCODING 44
SWIDTH 278 0
DWIDTH 4 0
BBX 2 5 1 -2
BITMAP
C0
C0
C0
40
80
ENDCHAR
STARTCHAR hyphen
ENCODING 45
SWIDTH 333 0
DWIDTH 5 0
BBX 4 2 0 3
BITMAP
F0
F0
ENDCHAR
STARTCHAR period
ENCODING 46
SWIDTH 278 0
DWIDTH 4 0
BBX 2 3 1 0
BITMAP
C0
C0
C0
ENDCHAR
STARTCHAR slash
ENCODING 47
SWIDTH 278 0
DWIDTH 5 0
BBX 4 11 0 0
BITMAP
10
10
30
20
20
60
40
40
C0
80
80
ENDCHAR
STARTCHAR zero
ENCODING 48
SWIDTH 574 0
DWIDTH 8 0
BBX 7 11 0 0
BITMAP
38
6C
C6
C6
C6
C6
C6
C6
C6
6C
38
ENDCHAR
STARTCHAR one
ENCODING 49
SWIDTH 574 0
DWIDTH 8 0
BBX 5 11 1 0
BITMAP
30
F0
30
30
30
30
30
30
30
30
78
ENDCHAR
STARTCHAR two
ENCODING 50
SWIDTH 574 0
DWIDTH 8 0
BBX 7 11 0 0
BITMAP
78
CE
C6
06
06
0C
18
30
62
FE
FE
ENDCHAR
STARTCHAR three
ENCODING 51
SWIDTH 574 0
DWIDTH 8 0
BBX 7 11 0 0
BITMAP
78
CE
C6
06
0C
3C
06
06
C6
CE
78
ENDCHAR
STARTCHAR four
ENCODING 52
SWIDTH 574 0
DWIDTH 8 0
BBX 7 11 0 0
BITMAP
0C
1C
1C
2C
2C
4C
4C
8C
FE
0C
1E
ENDCHAR
STARTCHAR five
ENCODING 53
SWIDTH 574 0
DWIDTH 8 0
BBX 7 11 0 0
BITMAP
7E
7C
40
40
5C
6E
06
06
C6
CE
78
ENDCHAR
STARTCHAR six
ENCODING 54
SWIDTH 574 0
DWIDTH 8 0
BBX 7 11 0 0
BITMAP
3C
66
C6
C0
DC
EE
C6
C6
C6
E6
78
ENDCHAR
STARTCHAR seven
ENCODING 55
SWIDTH 574 0
DWIDTH 8 0
BBX 7 11 0 0
BITMAP
FE
FE
84
8C
0C
18
18
18
30
30
30
ENDCHAR
STARTCHAR eight
ENCODING 56
SWIDTH 574 0
DWIDTH 8 0
BBX 7 11 0 0
BITMAP
78
E6
C6
C6
F4
3C
5E
C6
C6
CE
3C
ENDCHAR
STARTCHAR nine
ENCODING 57
SWIDTH 574 0
DWIDTH 8 0
BBX 7 11 0 0
BITMAP
3C
CE
C6
C6
C6
EE
76
06
C6
CC
78
ENDCHAR
STARTCHAR colon
ENCODING 58
SWIDTH 278 0
DWIDTH 4 0
BBX 2 7 1 0
BITMAP
C0
C0
C0
00
C0
C0
C0
ENDCHAR
STARTCHAR semicolon
ENCODING 59
SWIDTH 278 0
DWIDTH 4 0
BBX 2 9 1 -2
BITMAP
C0
C0
C0
00
C0
C0
C0
40
80
ENDCHAR
STARTCHAR less
ENCODING 60
SWIDTH 606 0
DWIDTH 8 0
BBX 7 7 0 1
BITMAP
02
0E
38
E0
38
0E
02
ENDCHAR
STARTCHAR equal
ENCODING 61
SWIDTH 606 0
DWIDTH 8 0
BBX 7 3 0 3
BITMAP
FE
00
FE
ENDCHAR
STARTCHAR greater
ENCODING 62
SWIDTH 606 0
DWIDTH 8 0
BBX 7 7 0 1
BITMAP
80
E0
38
0E
38
E0
80
ENDCHAR
STARTCHAR question
ENCODING 63
SWIDTH 500 0
DWIDTH 7 0
BBX 6 11 0 0
BITMAP
78
CC
CC
0C
18
30
20
00
30
30
30
ENDCHAR
STARTCHAR at
ENCODING 64
SWIDTH 747 0
DWIDTH 14 0
BBX 13 11 0 0
BITMAP
0FC0
3870
6398
6CD8
CCD8
D998
D9B0
DBB0
CDC0
6010
3FE0
ENDCHAR
STARTCHAR A
ENCODING 65
SWIDTH 759 0
DWIDTH 11 0
BBX 10 11 0 0
BITMAP
0C00
0C00
1600
1600
1600
2300
2300
3F00
4180
4180
E3C0
ENDCHAR
STARTCHAR B
ENCODING 66
SWIDTH 778 0
DWIDTH 10 0
BBX 9 11 0 0
BITMAP
FE00
6300
6300
6300
6600
7F00
6180
6180
6180
6380
FE00
ENDCHAR
STARTCHAR C
ENCODING 67
SWIDTH 778 0
DWIDTH 11 0
BBX 10 11 0 0
BITMAP
1F40
70C0
6040
C040
C000
C000
C000
C000
6040
70C0
1F00
ENDCHAR
STARTCHAR D
ENCODING 68
SWIDTH 833 0
DWIDTH 12 0
BBX 11 11 0 0
BITMAP
FF00
61C0
60C0
6060
6060
6060
6060
6060
60C0
61C0
FF00
ENDCHAR
STARTCHAR E
ENCODING 69
SWIDTH 759 0
DWIDTH 10 0
BBX 9 11 0 0
BITMAP
FF80
6180
6080
6480
6400
7C00
6400
6480
6080
6180
FF80
ENDCHAR
STARTCHAR F
ENCODING 70
SWIDTH 722 0
DWIDTH 10 0
BBX 9 11 0 0
BITMAP
FF80
6180
6080
6480
6400
7C00
6400
6400
6000
6000
F000
ENDCHAR
STARTCHAR G
ENCODING 71
SWIDTH 833 0
DWIDTH 12 0
BBX 11 11 0 0
BITMAP
1F40
70C0
6040
C040
C000
C000
C3E0
C0C0
60C0
71C0
1E40
ENDCHAR
STARTCHAR H
ENCODING 72
SWIDTH 870 0
DWIDTH 12 0
BBX 11 11 0 0
BITMAP
F1E0
60C0
60C0
60C0
60C0
7FC0
60C0
60C0
60C0
60C0
F1E0
ENDCHAR
STARTCHAR I
ENCODING 73
SWIDTH 444 0
DWIDTH 7 0
BBX 4 11 1 0
BITMAP
F0
60
60
60
60
60
60
60
60
60
F0
ENDCHAR
STARTCHAR J
ENCODING 74
SWIDTH 648 0
DWIDTH 9 0
BBX 7 11 0 0
BITMAP
1E
0C
0C
0C
0C
0C
0C
CC
CC
9C
70
ENDCHAR
STARTCHAR K
ENCODING 75
SWIDTH 815 0
DWIDTH 12 0
BBX 11 11 0 0
BITMAP
F3C0
6100
6200
6400
6800
7C00
6E00
6700
6380
61C0
F3E0
ENDCHAR
STARTCHAR L
ENCODING 76
SWIDTH 722 0
DWIDTH 10 0
BBX 9 11 0 0
BITMAP
F000
6000
6000
6000
6000
6000
6000
6080
6080
6180
FF80
ENDCHAR
STARTCHAR M
ENCODING 77
SWIDTH 981 0
DWIDTH 14 0
BBX 13 11 0 0
BITMAP
F078
7070
7070
58B0
58B0
58B0
4D30
4D30
4D30
4630
E678
ENDCHAR
STARTCHAR N
ENCODING 78
SWIDTH 833 0
DWIDTH 12 0
BBX 11 11 0 0
BITMAP
E0E0
7040
7840
5C40
4C40
4640
4740
43C0
41C0
40C0
E040
ENDCHAR
STARTCHAR O
ENCODING 79
SWIDTH 833 0
DWIDTH 12 0
BBX 11 11 0 0
BITMAP
1F00
71C0
60C0
C060
C060
C060
C060
C060
60C0
71C0
1F00
ENDCHAR
STARTCHAR P
ENCODING 80
SWIDTH 759 0
DWIDTH 10 0
BBX 9 11 0 0
BITMAP
FF00
6380
6180
6180
6380
7E00
6000
6000
6000
6000
F000
ENDCHAR
STARTCHAR Q
ENCODING 81
SWIDTH 833 0
DWIDTH 12 0
BBX 11 14 0 -3
BITMAP
1F00
71C0
60C0
C060
C060
C060
C060
DC60
66C0
73C0
1F00
0320
03A0
01C0
ENDCHAR
STARTCHAR R
ENCODING 82
SWIDTH 815 0
DWIDTH 12 0
BBX 11 11 0 0
BITMAP
FF00
6380
6180
6180
6300
7E00
6300
6300
6180
61A0
F1C0
ENDCHAR
STARTCHAR S
ENCODING 83
SWIDTH 667 0
DWIDTH 10 0
BBX 9 11 0 0
BITMAP
3D00
E300
C100
C100
F000
7E00
0F80
8180
8180
C380
BE00
ENDCHAR
STARTCHAR T
ENCODING 84
SWIDTH 722 0
DWIDTH 11 0
BBX 10 11 0 0
BITMAP
FFC0
CCC0
8C40
8C40
0C00
0C00
0C00
0C00
0C00
0C00
1E00
ENDCHAR
STARTCHAR U
ENCODING 85
SWIDTH 833 0
DWIDTH 12 0
BBX 11 11 0 0
BITMAP
F0E0
6040
6040
6040
6040
6040
6040
6040
6040
3080
1F00
ENDCHAR
STARTCHAR V
ENCODING 86
SWIDTH 759 0
DWIDTH 11 0
BBX 10 11 0 0
BITMAP
F1C0
6080
6080
3100
3100
3100
1A00
1A00
1A00
0C00
0C00
ENDCHAR
STARTCHAR W
ENCODING 87
SWIDTH 981 0
DWIDTH 14 0
BBX 13 11 0 0
BITMAP
F7B8
6310
6310
6310
35A0
35A0
35A0
35A0
18C0
18C0
18C0
ENDCHAR
STARTCHAR X
ENCODING 88
SWIDTH 722 0
DWIDTH 12 0
BBX 11 11 0 0
BITMAP
F9E0
70C0
3080
1900
0E00
0E00
0E00
1300
2180
61C0
F3E0
ENDCHAR
STARTCHAR Y
ENCODING 89
SWIDTH 722 0
DWIDTH 11 0
BBX 10 11 0 0
BITMAP
F1C0
6080
3100
3100
1A00
1A00
0C00
0C00
0C00
0C00
1E00
ENDCHAR
STARTCHAR Z
ENCODING 90
SWIDTH 667 0
DWIDTH 9 0
BBX 8 11 0 0
BITMAP
FF
C7
86
8E
1C
18
30
71
61
E3
FF
ENDCHAR
STARTCHAR bracketleft
ENCODING 91
SWIDTH 389 0
DWIDTH 5 0
BBX 4 13 0 -2
BITMAP
F0
C0
C0
C0
C0
C0
C0
C0
C0
C0
C0
C0
F0
ENDCHAR
STARTCHAR backslash
ENCODING 92
SWIDTH 606 0
DWIDTH 7 0
BBX 6 11 0 0
BITMAP
80
C0
40
60
20
30
10
18
08
0C
04
ENDCHAR
STARTCHAR bracketright
ENCODING 93
SWIDTH 389 0
DWIDTH 5 0
BBX 4 13 0 -2
BITMAP
F0
30
30
30
30
30
30
30
30
30
30
30
F0
ENDCHAR
STARTCHAR asciicircum
ENCODING 94
SWIDTH 606 0
DWIDTH 8 0
BBX 7 7 0 4
BITMAP
10
10
38
28
6C
44
C6
ENDCHAR
STARTCHAR underscore
ENCODING 95
SWIDTH 500 0
DWIDTH 7 0
BBX 7 1 0 -2
BITMAP
FE
ENDCHAR
STARTCHAR grave
ENCODING 96
SWIDTH 333 0
DWIDTH 6 0
BBX 4 3 1 8
BITMAP
C0
60
10
ENDCHAR
STARTCHAR a
ENCODING 97
SWIDTH 611 0
DWIDTH 9 0
BBX 8 7 0 0
BITMAP
3C
66
06
3E
C6
CE
77
ENDCHAR
STARTCHAR b
ENCODING 98
SWIDTH 648 0
DWIDTH 10 0
BBX 9 11 0 0
BITMAP
E000
6000
6000
6000
6E00
7300
6180
6180
6180
6300
5E00
ENDCHAR
STARTCHAR c
ENCODING 99
SWIDTH 556 0
DWIDTH 8 0
BBX 7 7 0 0
BITMAP
3C
66
C6
C0
C2
66
3C
ENDCHAR
STARTCHAR d
ENCODING 100
SWIDTH 667 0
DWIDTH 10 0
BBX 9 11 0 0
BITMAP
0700
0300
0300
0300
3B00
6700
C300
C300
C300
6700
3B80
ENDCHAR
STARTCHAR e
ENCODING 101
SWIDTH 574 0
DWIDTH 9 0
BBX 8 7 0 0
BITMAP
3C
66
C3
FF
C0
63
3E
ENDCHAR
STARTCHAR f
ENCODING 102
SWIDTH 389 0
DWIDTH 6 0
BBX 6 11 0 0
BITMAP
38
6C
6C
60
F8
60
60
60
60
60
F0
ENDCHAR
STARTCHAR g
ENCODING 103
SWIDTH 611 0
DWIDTH 8 0
BBX 7 11 0 -3
BITMAP
06
7C
C6
C6
7C
80
FC
7E
82
86
7C
ENDCHAR
STARTCHAR h
ENCODING 104
SWIDTH 685 0
DWIDTH 10 0
BBX 9 11 0 0
BITMAP
E000
6000
6000
6000
6E00
7300
6300
6300
6300
6300
F780
ENDCHAR
STARTCHAR i
ENCODING 105
SWIDTH 370 0
DWIDTH 5 0
BBX 4 10 0 0
BITMAP
60
60
00
E0
60
60
60
60
60
F0
ENDCHAR
STARTCHAR j
ENCODING 106
SWIDTH 352 0
DWIDTH 5 0
BBX 5 13 -2 -3
BITMAP
18
18
00
38
18
18
18
18
18
18
18
D8
70
ENDCHAR
STARTCHAR k
ENCODING 107
SWIDTH 667 0
DWIDTH 9 0
BBX 8 11 0 0
BITMAP
E0
60
60
60
67
64
68
78
6C
66
E7
ENDCHAR
STARTCHAR l
ENCODING 108
SWIDTH 352 0
DWIDTH 5 0
BBX 4 11 0 0
BITMAP
E0
60
60
60
60
60
60
60
60
60
F0
ENDCHAR
STARTCHAR m
ENCODING 109
SWIDTH 963 0
DWIDTH 15 0
BBX 14 7 0 0
BITMAP
EE70
7398
6318
6318
6318
6318
F7BC
ENDCHAR
STARTCHAR n
ENCODING 110
SWIDTH 685 0
DWIDTH 10 0
BBX 9 7 0 0
BITMAP
EE00
7300
6300
6300
6300
6300
F780
ENDCHAR
STARTCHAR o
ENCODING 111
SWIDTH 611 0
DWIDTH 9 0
BBX 8 7 0 0
BITMAP
3C
66
C3
C3
C3
66
3C
ENDCHAR
STARTCHAR p
ENCODING 112
SWIDTH 667 0
DWIDTH 10 0
BBX 9 10 0 -3
BITMAP
EE00
7300
6180
6180
6180
7300
6E00
6000
6000
F000
ENDCHAR
STARTCHAR q
ENCODING 113
SWIDTH 648 0
DWIDTH 9 0
BBX 9 10 0 -3
BITMAP
3D00
6700
C300
C300
C300
6700
3B00
0300
0300
0780
ENDCHAR
STARTCHAR r
ENCODING 114
SWIDTH 519 0
DWIDTH 7 0
BBX 7 7 0 0
BITMAP
EE
76
60
60
60
60
F0
ENDCHAR
STARTCHAR s
ENCODING 115
SWIDTH 500 0
DWIDTH 7 0
BBX 6 7 0 0
BITMAP
7C
C4
E0
78
1C
8C
F8
ENDCHAR
STARTCHAR t
ENCODING 116
SWIDTH 426 0
DWIDTH 6 0
BBX 6 10 0 0
BITMAP
20
60
60
F8
60
60
60
64
64
38
ENDCHAR
STARTCHAR u
ENCODING 117
SWIDTH 685 0
DWIDTH 10 0
BBX 9 7 0 0
BITMAP
E700
6300
6300
6300
6300
6700
3B80
ENDCHAR
STARTCHAR v
ENCODING 118
SWIDTH 611 0
DWIDTH 7 0
BBX 8 7 -1 0
BITMAP
F7
62
62
34
34
18
18
ENDCHAR
STARTCHAR w
ENCODING 119
SWIDTH 889 0
DWIDTH 12 0
BBX 13 7 -1 0
BITMAP
F7B8
6310
6310
35A0
35A0
18C0
18C0
ENDCHAR
STARTCHAR x
ENCODING 120
SWIDTH 611 0
DWIDTH 9 0
BBX 8 7 0 0
BITMAP
E7
76
3C
18
3C
4E
E7
ENDCHAR
STARTCHAR y
ENCODING 121
SWIDTH 611 0
DWIDTH 7 0
BBX 8 10 -1 -3
BITMAP
F7
62
62
34
34
18
18
10
D0
E0
ENDCHAR
STARTCHAR z
ENCODING 122
SWIDTH 537 0
DWIDTH 7 0
BBX 6 7 0 0
BITMAP
FC
8C
18
30
60
C4
FC
ENDCHAR
STARTCHAR braceleft
ENCODING 123
SWIDTH 389 0
DWIDTH 6 0
BBX 5 13 0 -2
BITMAP
18
20
60
60
60
40
80
40
60
60
60
20
18
ENDCHAR
STARTCHAR bar
ENCODING 124
SWIDTH 606 0
DWIDTH 8 0
BBX 2 11 2 0
BITMAP
C0
C0
C0
C0
C0
C0
C0
C0
C0
C0
C0
ENDCHAR
STARTCHAR braceright
ENCODING 125
SWIDTH 389 0
DWIDTH 6 0
BBX 5 13 0 -2
BITMAP
C0
20
30
30
30
10
08
10
30
30
30
20
C0
ENDCHAR
STARTCHAR asciitilde
ENCODING 126
SWIDTH 606 0
DWIDTH 8 0
BBX 7 2 0 4
BITMAP
76
DC
ENDCHAR
STARTCHAR space
ENCODING 160
SWIDTH 287 0
DWIDTH 4 0
BBX 1 1 0 0
BITMAP
00
ENDCHAR
STARTCHAR exclamdown
ENCODING 161
SWIDTH 296 0
DWIDTH 5 0
BBX 2 11 1 -3
BITMAP
C0
C0
C0
00
40
40
C0
C0
C0
C0
C0
ENDCHAR
STARTCHAR cent
ENCODING 162
SWIDTH 574 0
DWIDTH 8 0
BBX 7 9 0 -1
BITMAP
04
3C
6E
CE
D0
D2
76
3C
20
ENDCHAR
STARTCHAR sterling
ENCODING 163
SWIDTH 574 0
DWIDTH 9 0
BBX 8 11 0 0
BITMAP
1C
26
66
60
FC
30
30
20
E1
BF
DE
ENDCHAR
STARTCHAR currency
ENCODING 164
SWIDTH 606 0
DWIDTH 9 0
BBX 8 8 0 2
BITMAP
99
7E
66
C3
C3
66
7E
99
ENDCHAR
STARTCHAR yen
ENCODING 165
SWIDTH 722 0
DWIDTH 11 0
BBX 10 11 0 0
BITMAP
F1C0
6080
3100
3100
1A00
1A00
3F00
0C00
3F00
0C00
1E00
ENDCHAR
STARTCHAR brokenbar
ENCODING 166
SWIDTH 606 0
DWIDTH 8 0
BBX 2 11 2 0
BITMAP
C0
C0
C0
C0
00
00
C0
C0
C0
C0
C0
ENDCHAR
STARTCHAR section
ENCODING 167
SWIDTH 500 0
DWIDTH 7 0
BBX 6 13 0 -2
BITMAP
38
6C
4C
60
78
9C
CC
E4
78
1C
CC
C8
70
ENDCHAR
STARTCHAR dieresis
ENCODING 168
SWIDTH 333 0
DWIDTH 7 0
BBX 5 2 1 8
BITMAP
D8
D8
ENDCHAR
STARTCHAR copyright
ENCODING 169
SWIDTH 747 0
DWIDTH 12 0
BBX 11 11 0 0
BITMAP
0E00
3180
4040
4F40
9920
9020
9920
4E40
4040
3180
0E00
ENDCHAR
STARTCHAR ordfeminine
ENCODING 170
SWIDTH 367 0
DWIDTH 6 0
BBX 5 7 0 4
BITMAP
E0
30
70
B0
D8
00
F8
ENDCHAR
STARTCHAR guillemotleft
ENCODING 171
SWIDTH 500 0
DWIDTH 8 0
BBX 7 5 0 1
BITMAP
12
6C
D8
6C
12
ENDCHAR
STARTCHAR logicalnot
ENCODING 172
SWIDTH 606 0
DWIDTH 8 0
BBX 7 4 0 2
BITMAP
FE
02
02
02
ENDCHAR
STARTCHAR hyphen
ENCODING 173
SWIDTH 333 0
DWIDTH 5 0
BBX 4 2 0 3
BITMAP
F0
F0
ENDCHAR
STARTCHAR registered
ENCODING 174
SWIDTH 747 0
DWIDTH 12 0
BBX 11 11 0 0
BITMAP
0E00
3180
4040
5E40
8920
8E20
8A20
5B40
4040
3180
0E00
ENDCHAR
STARTCHAR macron
ENCODING 175
SWIDTH 333 0
DWIDTH 7 0
BBX 5 1 1 8
BITMAP
F8
ENDCHAR
STARTCHAR degree
ENCODING 176
SWIDTH 400 0
DWIDTH 6 0
BBX 4 4 1 7
BITMAP
60
90
90
60
ENDCHAR
STARTCHAR plusminus
ENCODING 177
SWIDTH 606 0
DWIDTH 8 0
BBX 7 7 0 1
BITMAP
10
10
FE
10
10
00
FE
ENDCHAR
STARTCHAR twosuperior
ENCODING 178
SWIDTH 344 0
DWIDTH 5 0
BBX 5 6 -1 5
BITMAP
70
98
18
30
60
F8
ENDCHAR
STARTCHAR threesuperior
ENCODING 179
SWIDTH 344 0
DWIDTH 5 0
BBX 5 6 -1 5
BITMAP
70
98
30
18
98
70
ENDCHAR
STARTCHAR acute
ENCODING 180
SWIDTH 333 0
DWIDTH 6 0
BBX 4 3 1 8
BITMAP
30
60
80
ENDCHAR
STARTCHAR mu
ENCODING 181
SWIDTH 685 0
DWIDTH 10 0
BBX 9 10 0 -3
BITMAP
E700
6300
6300
6300
6300
6700
7B80
4000
6000
6000
ENDCHAR
STARTCHAR paragraph
ENCODING 182
SWIDTH 747 0
DWIDTH 10 0
BBX 9 11 0 0
BITMAP
7F80
FB00
FB00
FB00
FB00
7B00
1B00
1B00
1B00
1B00
3F80
ENDCHAR
STARTCHAR periodcentered
ENCODING 183
SWIDTH 278 0
DWIDTH 5 0
BBX 2 2 1 4
BITMAP
C0
C0
ENDCHAR
STARTCHAR cedilla
ENCODING 184
SWIDTH 333 0
DWIDTH 5 0
BBX 3 3 1 -3
BITMAP
40
20
E0
ENDCHAR
STARTCHAR onesuperior
ENCODING 185
SWIDTH 344 0
DWIDTH 5 0
BBX 4 6 0 5
BITMAP
60
E0
60
60
60
F0
ENDCHAR
STARTCHAR ordmasculine
ENCODING 186
SWIDTH 367 0
DWIDTH 6 0
BBX 5 7 0 4
BITMAP
70
D8
D8
D8
70
00
F8
ENDCHAR
STARTCHAR guillemotright
ENCODING 187
SWIDTH 500 0
DWIDTH 8 0
BBX 7 5 0 1
BITMAP
90
6C
36
6C
90
ENDCHAR
STARTCHAR onequarter
ENCODING 188
SWIDTH 861 0
DWIDTH 12 0
BBX 11 11 0 0
BITMAP
6100
E300
6200
6600
6400
FCC0
09C0
1AC0
14C0
37E0
20C0
ENDCHAR
STARTCHAR onehalf
ENCODING 189
SWIDTH 861 0
DWIDTH 12 0
BBX 11 11 0 0
BITMAP
6100
E300
6200
6600
6400
FDC0
0A60
1860
10C0
3180
23E0
ENDCHAR
STARTCHAR threequarters
ENCODING 190
SWIDTH 861 0
DWIDTH 12 0
BBX 12 11 -1 0
BITMAP
7080
9980
3100
1B00
9A00
7660
04E0
0D60
0A60
1BF0
1060
ENDCHAR
STARTCHAR questiondown
ENCODING 191
SWIDTH 500 0
DWIDTH 7 0
BBX 6 11 0 -3
BITMAP
30
30
30
00
10
30
60
C0
CC
CC
78
ENDCHAR
STARTCHAR Agrave
ENCODING 192
SWIDTH 759 0
DWIDTH 11 0
BBX 10 15 0 0
BITMAP
3000
1800
0400
0000
0C00
0C00
1600
1600
1600
2300
2300
3F00
4180
4180
E3C0
ENDCHAR
STARTCHAR Aacute
ENCODING 193
SWIDTH 759 0
DWIDTH 11 0
BBX 10 15 0 0
BITMAP
0300
0600
0800
0000
0C00
0C00
1600
1600
1600
2300
2300
3F00
4180
4180
E3C0
ENDCHAR
STARTCHAR Acircumflex
ENCODING 194
SWIDTH 759 0
DWIDTH 11 0
BBX 10 15 0 0
BITMAP
0800
1C00
3600
0000
0C00
0C00
1600
1600
1600
2300
2300
3F00
4180
4180
E3C0
ENDCHAR
STARTCHAR Atilde
ENCODING 195
SWIDTH 759 0
DWIDTH 11 0
BBX 10 14 0 0
BITMAP
1D00
2E00
0000
0C00
0C00
1600
1600
1600
2300
2300
3F00
4180
4180
E3C0
ENDCHAR
STARTCHAR Adieresis
ENCODING 196
SWIDTH 759 0
DWIDTH 11 0
BBX 10 14 0 0
BITMAP
3300
3300
0000
0C00
0C00
1600
1600
1600
2300
2300
3F00
4180
4180
E3C0
ENDCHAR
STARTCHAR Aring
ENCODING 197
SWIDTH 759 0
DWIDTH 11 0
BBX 10 15 0 0
BITMAP
1E00
3300
3300
1E00
0000
0C00
1600
1600
1600
2300
2300
3F00
4180
4180
E3C0
ENDCHAR
STARTCHAR AE
ENCODING 198
SWIDTH 981 0
DWIDTH 15 0
BBX 15 11 -1 0
BITMAP
0FFE
0586
0582
0992
0990
11F0
1F90
2192
2182
4186
E3FE
ENDCHAR
STARTCHAR Ccedilla
ENCODING 199
SWIDTH 778 0
DWIDTH 11 0
BBX 10 14 0 -3
BITMAP
1F40
70C0
6040
C040
C000
C000
C000
C000
6040
70C0
1F00
0800
0400
1C00
ENDCHAR
STARTCHAR Egrave
ENCODING 200
SWIDTH 759 0
DWIDTH 10 0
BBX 9 15 0 0
BITMAP
3000
1800
0400
0000
FF80
6180
6080
6480
6400
7C00
6400
6480
6080
6180
FF80
ENDCHAR
STARTCHAR Eacute
ENCODING 201
SWIDTH 759 0
DWIDTH 10 0
BBX 9 15 0 0
BITMAP
0300
0600
0800
0000
FF80
6180
6080
6480
6400
7C00
6400
6480
6080
6180
FF80
ENDCHAR
STARTCHAR Ecircumflex
ENCODING 202
SWIDTH 759 0
DWIDTH 10 0
BBX 9 15 0 0
BITMAP
0800
1C00
3600
0000
FF80
6180
6080
6480
6400
7C00
6400
6480
6080
6180
FF80
ENDCHAR
STARTCHAR Edieresis
ENCODING 203
SWIDTH 759 0
DWIDTH 10 0
BBX 9 14 0 0
BITMAP
3300
3300
0000
FF80
6180
6080
6480
6400
7C00
6400
6480
6080
6180
FF80
ENDCHAR
STARTCHAR Igrave
ENCODING 204
SWIDTH 444 0
DWIDTH 7 0
BBX 5 15 0 0
BITMAP
C0
60
10
00
78
30
30
30
30
30
30
30
30
30
78
ENDCHAR
STARTCHAR Iacute
ENCODING 205
SWIDTH 444 0
DWIDTH 7 0
BBX 4 15 1 0
BITMAP
30
60
80
00
F0
60
60
60
60
60
60
60
60
60
F0
ENDCHAR
STARTCHAR Icircumflex
ENCODING 206
SWIDTH 444 0
DWIDTH 7 0
BBX 5 15 0 0
BITMAP
20
70
D8
00
78
30
30
30
30
30
30
30
30
30
78
ENDCHAR
STARTCHAR Idieresis
ENCODING 207
SWIDTH 444 0
DWIDTH 7 0
BBX 6 14 0 0
BITMAP
CC
CC
00
78
30
30
30
30
30
30
30
30
30
78
ENDCHAR
STARTCHAR Eth
ENCODING 208
SWIDTH 833 0
DWIDTH 12 0
BBX 11 11 0 0
BITMAP
FF00
61C0
60C0
6060
6060
F860
6060
6060
60C0
61C0
FF00
ENDCHAR
STARTCHAR Ntilde
ENCODING 209
SWIDTH 833 0
DWIDTH 12 0
BBX 11 14 0 0
BITMAP
1E80
2700
0000
E0E0
7040
7840
5C40
4C40
4640
4740
43C0
41C0
40C0
E040
ENDCHAR
STARTCHAR Ograve
ENCODING 210
SWIDTH 833 0
DWIDTH 12 0
BBX 11 15 0 0
BITMAP
3000
1800
0400
0000
1F00
71C0
60C0
C060
C060
C060
C060
C060
60C0
71C0
1F00
ENDCHAR
STARTCHAR Oacute
ENCODING 211
SWIDTH 833 0
DWIDTH 12 0
BBX 11 15 0 0
BITMAP
0300
0600
0800
0000
1F00
71C0
60C0
C060
C060
C060
C060
C060
60C0
71C0
1F00
ENDCHAR
STARTCHAR Ocircumflex
ENCODING 212
SWIDTH 833 0
DWIDTH 12 0
BBX 11 15 0 0
BITMAP
0400
0E00
1B00
0000
1F00
71C0
60C0
C060
C060
C060
C060
C060
60C0
71C0
1F00
ENDCHAR
STARTCHAR Otilde
ENCODING 213
SWIDTH 833 0
DWIDTH 12 0
BBX 11 14 0 0
BITMAP
1D00
2E00
0000
1F00
71C0
60C0
C060
C060
C060
C060
C060
60C0
71C0
1F00
ENDCHAR
STARTCHAR Odieresis
ENCODING 214
SWIDTH 833 0
DWIDTH 12 0
BBX 11 14 0 0
BITMAP
1980
1980
0000
1F00
71C0
60C0
C060
C060
C060
C060
C060
60C0
71C0
1F00
ENDCHAR
STARTCHAR multiply
ENCODING 215
SWIDTH 606 0
DWIDTH 8 0
BBX 8 7 0 1
BITMAP
C3
66
3C
18
3C
66
C3
ENDCHAR
STARTCHAR Oslash
ENCODING 216
SWIDTH 833 0
DWIDTH 12 0
BBX 11 11 0 0
BITMAP
1F20
71C0
60C0
C160
C260
C460
C860
D060
60C0
71C0
9F00
ENDCHAR
STARTCHAR Ugrave
ENCODING 217
SWIDTH 833 0
DWIDTH 12 0
BBX 11 15 0 0
BITMAP
1800
0C00
0200
0000
F0E0
6040
6040
6040
6040
6040
6040
6040
6040
3080
1F00
ENDCHAR
STARTCHAR Uacute
ENCODING 218
SWIDTH 833 0
DWIDTH 12 0
BBX 11 15 0 0
BITMAP
0300
0600
0800
0000
F0E0
6040
6040
6040
6040
6040
6040
6040
6040
3080
1F00
ENDCHAR
STARTCHAR Ucircumflex
ENCODING 219
SWIDTH 833 0
DWIDTH 12 0
BBX 11 15 0 0
BITMAP
0400
0E00
1B00
0000
F0E0
6040
6040
6040
6040
6040
6040
6040
6040
3080
1F00
ENDCHAR
STARTCHAR Udieresis
ENCODING 220
SWIDTH 833 0
DWIDTH 12 0
BBX 11 14 0 0
BITMAP
1980
1980
0000
F0E0
6040
6040
6040
6040
6040
6040
6040
6040
3080
1F00
ENDCHAR
STARTCHAR Yacute
ENCODING 221
SWIDTH 722 0
DWIDTH 11 0
BBX 10 15 0 0
BITMAP
0300
0600
0800
0000
F1C0
6080
3100
3100
1A00
1A00
0C00
0C00
0C00
0C00
1E00
ENDCHAR
STARTCHAR Thorn
ENCODING 222
SWIDTH 759 0
DWIDTH 10 0
BBX 9 11 0 0
BITMAP
F000
6000
7F00
6380
6180
6180
6380
7E00
6000
6000
F000
ENDCHAR
STARTCHAR germandbls
ENCODING 223
SWIDTH 611 0
DWIDTH 9 0
BBX 8 11 0 0
BITMAP
1E
23
63
62
6C
62
63
63
63
63
EE
ENDCHAR
STARTCHAR agrave
ENCODING 224
SWIDTH 611 0
DWIDTH 9 0
BBX 8 11 0 0
BITMAP
30
18
04
00
3C
66
06
3E
C6
CE
77
ENDCHAR
STARTCHAR aacute
ENCODING 225
SWIDTH 611 0
DWIDTH 9 0
BBX 8 11 0 0
BITMAP
0C
18
20
00
3C
66
06
3E
C6
CE
77
ENDCHAR
STARTCHAR acircumflex
ENCODING 226
SWIDTH 611 0
DWIDTH 9 0
BBX 8 11 0 0
BITMAP
10
38
6C
00
3C
66
06
3E
C6
CE
77
ENDCHAR
STARTCHAR atilde
ENCODING 227
SWIDTH 611 0
DWIDTH 9 0
BBX 8 10 0 0
BITMAP
34
58
00
3C
66
06
3E
C6
CE
77
ENDCHAR
STARTCHAR adieresis
ENCODING 228
SWIDTH 611 0
DWIDTH 9 0
BBX 8 10 0 0
BITMAP
6C
6C
00
3C
66
06
3E
C6
CE
77
ENDCHAR
STARTCHAR aring
ENCODING 229
SWIDTH 611 0
DWIDTH 9 0
BBX 8 11 0 0
BITMAP
18
24
18
00
3C
66
06
3E
C6
CE
77
ENDCHAR
STARTCHAR ae
ENCODING 230
SWIDTH 870 0
DWIDTH 14 0
BBX 13 7 0 0
BITMAP
39E0
6730
0618
3FF8
C600
C718
79F0
ENDCHAR
STARTCHAR ccedilla
ENCODING 231
SWIDTH 556 0
DWIDTH 8 0
BBX 7 10 0 -3
BITMAP
3C
66
C6
C0
C2
66
3C
10
08
38
ENDCHAR
STARTCHAR egrave
ENCODING 232
SWIDTH 574 0
DWIDTH 9 0
BBX 8 11 0 0
BITMAP
30
18
04
00
3C
66
C3
FF
C0
63
3E
ENDCHAR
STARTCHAR eacute
ENCODING 233
SWIDTH 574 0
DWIDTH 9 0
BBX 8 11 0 0
BITMAP
0C
18
20
00
3C
66
C3
FF
C0
63
3E
ENDCHAR
STARTCHAR ecircumflex
ENCODING 234
SWIDTH 574 0
DWIDTH 9 0
BBX 8 11 0 0
BITMAP
10
38
6C
00
3C
66
C3
FF
C0
63
3E
ENDCHAR
STARTCHAR edieresis
ENCODING 235
SWIDTH 574 0
DWIDTH 9 0
BBX 8 10 0 0
BITMAP
6C
6C
00
3C
66
C3
FF
C0
63
3E
ENDCHAR
STARTCHAR igrave
ENCODING 236
SWIDTH 370 0
DWIDTH 5 0
BBX 4 11 0 0
BITMAP
C0
60
10
00
E0
60
60
60
60
60
F0
ENDCHAR
STARTCHAR iacute
ENCODING 237
SWIDTH 370 0
DWIDTH 5 0
BBX 4 11 0 0
BITMAP
30
60
80
00
E0
60
60
60
60
60
F0
ENDCHAR
STARTCHAR icircumflex
ENCODING 238
SWIDTH 370 0
DWIDTH 5 0
BBX 5 11 -1 0
BITMAP
20
70
D8
00
70
30
30
30
30
30
78
ENDCHAR
STARTCHAR idieresis
ENCODING 239
SWIDTH 370 0
DWIDTH 5 0
BBX 6 10 -1 0
BITMAP
CC
CC
00
70
30
30
30
30
30
78
ENDCHAR
STARTCHAR eth
ENCODING 240
SWIDTH 611 0
DWIDTH 9 0
BBX 8 11 0 0
BITMAP
C6
38
78
8C
3E
66
C3
C3
C3
66
3C
ENDCHAR
STARTCHAR ntilde
ENCODING 241
SWIDTH 685 0
DWIDTH 10 0
BBX 9 10 0 0
BITMAP
1A00
2C00
0000
EE00
7300
6300
6300
6300
6300
F780
ENDCHAR
STARTCHAR ograve
ENCODING 242
SWIDTH 611 0
DWIDTH 9 0
BBX 8 11 0 0
BITMAP
30
18
04
00
3C
66
C3
C3
C3
66
3C
ENDCHAR
STARTCHAR oacute
ENCODING 243
SWIDTH 611 0
DWIDTH 9 0
BBX 8 11 0 0
BITMAP
0C
18
20
00
3C
66
C3
C3
C3
66
3C
ENDCHAR
STARTCHAR ocircumflex
ENCODING 244
SWIDTH 611 0
DWIDTH 9 0
BBX 8 11 0 0
BITMAP
10
38
6C
00
3C
66
C3
C3
C3
66
3C
ENDCHAR
STARTCHAR otilde
ENCODING 245
SWIDTH 611 0
DWIDTH 9 0
BBX 8 10 0 0
BITMAP
34
58
00
3C
66
C3
C3
C3
66
3C
ENDCHAR
STARTCHAR odieresis
ENCODING 246
SWIDTH 611 0
DWIDTH 9 0
BBX 8 10 0 0
BITMAP
6C
6C
00
3C
66
C3
C3
C3
66
3C
ENDCHAR
STARTCHAR divide
ENCODING 247
SWIDTH 606 0
DWIDTH 8 0
BBX 7 7 0 1
BITMAP
10
10
00
FE
00
10
10
ENDCHAR
STARTCHAR oslash
ENCODING 248
SWIDTH 611 0
DWIDTH 9 0
BBX 8 9 0 -1
BITMAP
02
3C
6E
CB
D3
D3
66
3C
40
ENDCHAR
STARTCHAR ugrave
ENCODING 249
SWIDTH 685 0
DWIDTH 10 0
BBX 9 11 0 0
BITMAP
3000
1800
0400
0000
E700
6300
6300
6300
6300
6700
3B80
ENDCHAR
STARTCHAR uacute
ENCODING 250
SWIDTH 685 0
DWIDTH 10 0
BBX 9 11 0 0
BITMAP
0600
0C00
1000
0000
E700
6300
6300
6300
6300
6700
3B80
ENDCHAR
STARTCHAR ucircumflex
ENCODING 251
SWIDTH 685 0
DWIDTH 10 0
BBX 9 11 0 0
BITMAP
0800
1C00
3600
0000
E700
6300
6300
6300
6300
6700
3B80
ENDCHAR
STARTCHAR udieresis
ENCODING 252
SWIDTH 685 0
DWIDTH 10 0
BBX 9 10 0 0
BITMAP
3600
3600
0000
E700
6300
6300
6300
6300
6700
3B80
ENDCHAR
STARTCHAR yacute
ENCODING 253
SWIDTH 611 0
DWIDTH 7 0
BBX 8 14 -1 -3
BITMAP
06
0C
10
00
F7
62
62
34
34
18
18
10
D0
E0
ENDCHAR
STARTCHAR thorn
ENCODING 254
SWIDTH 667 0
DWIDTH 10 0
BBX 9 14 0 -3
BITMAP
E000
6000
6000
6000
6E00
7300
6180
6180
6180
7300
6E00
6000
6000
F000
ENDCHAR
STARTCHAR ydieresis
ENCODING 255
SWIDTH 611 0
DWIDTH 7 0
BBX 8 13 -1 -3
BITMAP
66
66
00
F7
62
62
34
34
18
18
10
D0
E0
ENDCHAR
STARTCHAR Amacron
ENCODING 256
SWIDTH 759 0
DWIDTH 11 0
BBX 10 13 0 0
BITMAP
1F00
0000
0C00
0C00
1600
1600
1600
2300
2300
3F00
4180
4180
E3C0
ENDCHAR
STARTCHAR amacron
ENCODING 257
SWIDTH 611 0
DWIDTH 9 0
BBX 8 9 0 0
BITMAP
3E
00
3C
66
06
3E
C6
CE
77
ENDCHAR
STARTCHAR Abreve
ENCODING 258
SWIDTH 759 0
DWIDTH 11 0
BBX 10 15 0 0
BITMAP
1100
1B00
0E00
0000
0C00
0C00
1600
1600
1600
2300
2300
3F00
4180
4180
E3C0
ENDCHAR
STARTCHAR abreve
ENCODING 259
SWIDTH 611 0
DWIDTH 9 0
BBX 8 11 0 0
BITMAP
22
36
1C
00
3C
66
06
3E
C6
CE
77
ENDCHAR
STARTCHAR Aogonek
ENCODING 260
SWIDTH 759 0
DWIDTH 11 0
BBX 10 14 0 -3
BITMAP
0C00
0C00
1600
1600
1600
2300
2300
3F00
4180
4180
E3C0
0400
0800
0E00
ENDCHAR
STARTCHAR aogonek
ENCODING 261
SWIDTH 611 0
DWIDTH 9 0
BBX 8 10 0 -3
BITMAP
3C
66
06
3E
C6
CE
77
08
10
1C
ENDCHAR
STARTCHAR Cacute
ENCODING 262
SWIDTH 778 0
DWIDTH 11 0
BBX 10 15 0 0
BITMAP
0300
0600
0800
0000
1F40
70C0
6040
C040
C000
C000
C000
C000
6040
70C0
1F00
ENDCHAR
STARTCHAR cacute
ENCODING 263
SWIDTH 556 0
DWIDTH 8 0
BBX 7 11 0 0
BITMAP
06
0C
10
00
3C
66
C6
C0
C2
66
3C
ENDCHAR
STARTCHAR Ccircumflex
ENCODING 264
SWIDTH 778 0
DWIDTH 11 0
BBX 10 15 0 0
BITMAP
0400
0E00
1B00
0000
1F40
70C0
6040
C040
C000
C000
C000
C000
6040
70C0
1F00
ENDCHAR
STARTCHAR ccircumflex
ENCODING 265
SWIDTH 556 0
DWIDTH 8 0
BBX 7 11 0 0
BITMAP
10
38
6C
00
3C
66
C6
C0
C2
66
3C
ENDCHAR
STARTCHAR Cdotaccent
ENCODING 266
SWIDTH 778 0
DWIDTH 11 0
BBX 10 14 0 0
BITMAP
0C00
0C00
0000
1F40
70C0
6040
C040
C000
C000
C000
C000
6040
70C0
1F00
ENDCHAR
STARTCHAR cdotaccent
ENCODING 267
SWIDTH 556 0
DWIDTH 8 0
BBX 7 10 0 0
BITMAP
18
18
00
3C
66
C6
C0
C2
66
3C
ENDCHAR
STARTCHAR Ccaron
ENCODING 268
SWIDTH 778 0
DWIDTH 11 0
BBX 10 15 0 0
BITMAP
1B00
0E00
0400
0000
1F40
70C0
6040
C040
C000
C000
C000
C000
6040
70C0
1F00
ENDCHAR
STARTCHAR ccaron
ENCODING 269
SWIDTH 556 0
DWIDTH 8 0
BBX 7 11 0 0
BITMAP
6C
38
10
00
3C
66
C6
C0
C2
66
3C
ENDCHAR
STARTCHAR Dcaron
ENCODING 270
SWIDTH 833 0
DWIDTH 12 0
BBX 11 15 0 0
BITMAP
1B00
0E00
0400
0000
FF00
61C0
60C0
6060
6060
6060
6060
6060
60C0
61C0
FF00
ENDCHAR
STARTCHAR dcaron
ENCODING 271
SWIDTH 875 0
DWIDTH 14 0
BBX 13 11 0 0
BITMAP
0718
0318
0318
0308
3B10
6700
C300
C300
C300
6700
3B80
ENDCHAR
STARTCHAR Dcroat
ENCODING 272
SWIDTH 833 0
DWIDTH 12 0
BBX 11 11 0 0
BITMAP
FF00
61C0
60C0
6060
6060
F860
6060
6060
60C0
61C0
FF00
ENDCHAR
STARTCHAR dcroat
ENCODING 273
SWIDTH 667 0
DWIDTH 10 0
BBX 9 11 0 0
BITMAP
0700
0300
0F00
0300
3B00
6700
C300
C300
C300
6700
3B80
ENDCHAR
STARTCHAR Emacron
ENCODING 274
SWIDTH 759 0
DWIDTH 10 0
BBX 9 13 0 0
BITMAP
3E00
0000
FF80
6180
6080
6480
6400
7C00
6400
6480
6080
6180
FF80
ENDCHAR
STARTCHAR emacron
ENCODING 275
SWIDTH 574 0
DWIDTH 9 0
BBX 8 9 0 0
BITMAP
3E
00
3C
66
C3
FF
C0
63
3E
ENDCHAR
STARTCHAR Ebreve
ENCODING 276
SWIDTH 759 0
DWIDTH 10 0
BBX 9 15 0 0
BITMAP
2200
3600
1C00
0000
FF80
6180
6080
6480
6400
7C00
6400
6480
6080
6180
FF80
ENDCHAR
STARTCHAR ebreve
ENCODING 277
SWIDTH 574 0
DWIDTH 9 0
BBX 8 11 0 0
BITMAP
22
36
1C
00
3C
66
C3
FF
C0
63
3E
ENDCHAR
STARTCHAR Edotaccent
ENCODING 278
SWIDTH 759 0
DWIDTH 10 0
BBX 9 14 0 0
BITMAP
0C00
0C00
0000
FF80
6180
6080
6480
6400
7C00
6400
6480
6080
6180
FF80
ENDCHAR
STARTCHAR edotaccent
ENCODING 279
SWIDTH 574 0
DWIDTH 9 0
BBX 8 10 0 0
BITMAP
18
18
00
3C
66
C3
FF
C0
63
3E
ENDCHAR
STARTCHAR Eogonek
ENCODING 280
SWIDTH 759 0
DWIDTH 10 0
BBX 9 14 0 -3
BITMAP
FF80
6180
6080
6480
6400
7C00
6400
6480
6080
6180
FF80
0800
1000
1C00
ENDCHAR
STARTCHAR eogonek
ENCODING 281
SWIDTH 574 0
DWIDTH 9 0
BBX 8 10 0 -3
BITMAP
3C
66
C3
FF
C0
63
3E
08
10
1C
ENDCHAR
STARTCHAR Ecaron
ENCODING 282
SWIDTH 759 0
DWIDTH 10 0
BBX 9 15 0 0
BITMAP
3600
1C00
0800
0000
FF80
6180
6080
6480
6400
7C00
6400
6480
6080
6180
FF80
ENDCHAR
STARTCHAR ecaron
ENCODING 283
SWIDTH 574 0
DWIDTH 9 0
BBX 8 11 0 0
BITMAP
36
1C
08
00
3C
66
C3
FF
C0
63
3E
ENDCHAR
STARTCHAR Gcircumflex
ENCODING 284
SWIDTH 833 0
DWIDTH 12 0
BBX 11 15 0 0
BITMAP
0400
0E00
1B00
0000
1F40
70C0
6040
C040
C000
C000
C3E0
C0C0
60C0
71C0
1E40
ENDCHAR
STARTCHAR gcircumflex
ENCODING 285
SWIDTH 611 0
DWIDTH 8 0
BBX 7 15 0 -3
BITMAP
10
38
6C
00
06
7C
C6
C6
7C
80
FC
7E
82
86
7C
ENDCHAR
STARTCHAR Gbreve
ENCODING 286
SWIDTH 833 0
DWIDTH 12 0
BBX 11 15 0 0
BITMAP
1100
1B00
0E00
0000
1F40
70C0
6040
C040
C000
C000
C3E0
C0C0
60C0
71C0
1E40
ENDCHAR
STARTCHAR gbreve
ENCODING 287
SWIDTH 611 0
DWIDTH 8 0
BBX 7 15 0 -3
BITMAP
44
6C
38
00
06
7C
C6
C6
7C
80
FC
7E
82
86
7C
ENDCHAR
STARTCHAR Gdotaccent
ENCODING 288
SWIDTH 833 0
DWIDTH 12 0
BBX 11 14 0 0
BITMAP
0C00
0C00
0000
1F40
70C0
6040
C040
C000
C000
C3E0
C0C0
60C0
71C0
1E40
ENDCHAR
STARTCHAR gdotaccent
ENCODING 289
SWIDTH 611 0
DWIDTH 8 0
BBX 7 14 0 -3
BITMAP
18
18
00
06
7C
C6
C6
7C
80
FC
7E
82
86
7C
ENDCHAR
STARTCHAR Gcommaaccent
ENCODING 290
SWIDTH 833 0
DWIDTH 12 0
BBX 11 17 0 -6
BITMAP
1F40
70C0
6040
C040
C000
C000
C3E0
C0C0
60C0
71C0
1E40
0000
0600
0600
0600
0200
0400
ENDCHAR
STARTCHAR gcommaaccent
ENCODING 291
SWIDTH 611 0
DWIDTH 8 0
BBX 7 17 0 -3
BITMAP
08
10
18
18
18
00
06
7C
C6
C6
7C
80
FC
7E
82
86
7C
ENDCHAR
STARTCHAR Hcircumflex
ENCODING 292
SWIDTH 870 0
DWIDTH 12 0
BBX 11 15 0 0
BITMAP
0400
0E00
1B00
0000
F1E0
60C0
60C0
60C0
60C0
7FC0
60C0
60C0
60C0
60C0
F1E0
ENDCHAR
STARTCHAR hcircumflex
ENCODING 293
SWIDTH 685 0
DWIDTH 10 0
BBX 9 15 0 0
BITMAP
2000
7000
D800
0000
E000
6000
6000
6000
6E00
7300
6300
6300
6300
6300
F780
ENDCHAR
STARTCHAR Hbar
ENCODING 294
SWIDTH 870 0
DWIDTH 12 0
BBX 11 11 0 0
BITMAP
F1E0
60C0
60C0
FFE0
60C0
7FC0
60C0
60C0
60C0
60C0
F1E0
ENDCHAR
STARTCHAR hbar
ENCODING 295
SWIDTH 685 0
DWIDTH 10 0
BBX 9 11 0 0
BITMAP
E000
6000
F000
6000
6E00
7300
6300
6300
6300
6300
F780
ENDCHAR
STARTCHAR Itilde
ENCODING 296
SWIDTH 444 0
DWIDTH 7 0
BBX 5 14 1 0
BITMAP
68
B0
00
F0
60
60
60
60
60
60
60
60
60
F0
ENDCHAR
STARTCHAR itilde
ENCODING 297
SWIDTH 370 0
DWIDTH 5 0
BBX 5 10 0 0
BITMAP
68
B0
00
E0
60
60
60
60
60
F0
ENDCHAR
STARTCHAR Imacron
ENCODING 298
SWIDTH 444 0
DWIDTH 7 0
BBX 5 13 1 0
BITMAP
F8
00
F0
60
60
60
60
60
60
60
60
60
F0
ENDCHAR
STARTCHAR imacron
ENCODING 299
SWIDTH 370 0
DWIDTH 5 0
BBX 5 9 -1 0
BITMAP
F8
00
70
30
30
30
30
30
78
ENDCHAR
STARTCHAR Ibreve
ENCODING 300
SWIDTH 444 0
DWIDTH 7 0
BBX 5 15 1 0
BITMAP
88
D8
70
00
F0
60
60
60
60
60
60
60
60
60
F0
ENDCHAR
STARTCHAR ibreve
ENCODING 301
SWIDTH 370 0
DWIDTH 5 0
BBX 5 11 -1 0
BITMAP
88
D8
70
00
70
30
30
30
30
30
78
ENDCHAR
STARTCHAR Iogonek
ENCODING 302
SWIDTH 444 0
DWIDTH 7 0
BBX 4 14 1 -3
BITMAP
F0
60
60
60
60
60
60
60
60
60
F0
20
40
70
ENDCHAR
STARTCHAR iogonek
ENCODING 303
SWIDTH 370 0
DWIDTH 5 0
BBX 4 13 0 -3
BITMAP
60
60
00
E0
60
60
60
60
60
F0
20
40
70
ENDCHAR
STARTCHAR Idotaccent
ENCODING 304
SWIDTH 444 0
DWIDTH 7 0
BBX 4 14 1 0
BITMAP
60
60
00
F0
60
60
60
60
60
60
60
60
60
F0
ENDCHAR
STARTCHAR dotlessi
ENCODING 305
SWIDTH 370 0
DWIDTH 5 0
BBX 4 7 0 0
BITMAP
E0
60
60
60
60
60
F0
ENDCHAR
STARTCHAR IJ
ENCODING 306
SWIDTH 1070 0
DWIDTH 16 0
BBX 13 11 1 0
BITMAP
F078
6030
6030
6030
6030
6030
6030
6330
6330
6270
F1C0
ENDCHAR
STARTCHAR ij
ENCODING 307
SWIDTH 704 0
DWIDTH 10 0
BBX 8 13 0 -3
BITMAP
63
63
00
E7
63
63
63
63
63
F3
03
1B
0E
ENDCHAR
STARTCHAR Jcircumflex
ENCODING 308
SWIDTH 648 0
DWIDTH 9 0
BBX 7 15 0 0
BITMAP
08
1C
36
00
1E
0C
0C
0C
0C
0C
0C
CC
CC
9C
70
ENDCHAR
STARTCHAR jcircumflex
ENCODING 309
SWIDTH 352 0
DWIDTH 5 0
BBX 6 14 -2 -3
BITMAP
10
38
6C
00
38
18
18
18
18
18
18
18
D8
70
ENDCHAR
STARTCHAR Kcommaaccent
ENCODING 310
SWIDTH 815 0
DWIDTH 12 0
BBX 11 17 0 -6
BITMAP
F3C0
6100
6200
6400
6800
7C00
6E00
6700
6380
61C0
F3E0
0000
0600
0600
0600
0200
0400
ENDCHAR
STARTCHAR kcommaaccent
ENCODING 311
SWIDTH 667 0
DWIDTH 9 0
BBX 8 17 0 -6
BITMAP
E0
60
60
60
67
64
68
78
6C
66
E7
00
18
18
18
08
10
ENDCHAR
STARTCHAR kgreenlandic
ENCODING 312
SWIDTH 667 0
DWIDTH 9 0
BBX 8 7 0 0
BITMAP
67
64
68
78
6C
66
E7
ENDCHAR
STARTCHAR Lacute
ENCODING 313
SWIDTH 722 0
DWIDTH 10 0
BBX 9 15 0 0
BITMAP
0C00
1800
2000
0000
F000
6000
6000
6000
6000
6000
6000
6080
6080
6180
FF80
ENDCHAR
STARTCHAR lacute
ENCODING 314
SWIDTH 352 0
DWIDTH 5 0
BBX 5 15 0 0
BITMAP
18
30
40
00
E0
60
60
60
60
60
60
60
60
60
F0
ENDCHAR
STARTCHAR Lcommaaccent
ENCODING 315
SWIDTH 722 0
DWIDTH 10 0
BBX 9 17 0 -6
BITMAP
F000
6000
6000
6000
6000
6000
6000
6080
6080
6180
FF80
0000
0C00
0C00
0C00
0400
0800
ENDCHAR
STARTCHAR lcommaaccent
ENCODING 316
SWIDTH 352 0
DWIDTH 5 0
BBX 4 17 0 -6
BITMAP
E0
60
60
60
60
60
60
60
60
60
F0
00
60
60
60
20
40
ENDCHAR
STARTCHAR Lcaron
ENCODING 317
SWIDTH 927 0
DWIDTH 14 0
BBX 13 11 0 0
BITMAP
F018
6018
6018
6008
6010
6000
6000
6080
6080
6180
FF80
ENDCHAR
STARTCHAR lcaron
ENCODING 318
SWIDTH 575 0
DWIDTH 9 0
BBX 8 11 0 0
BITMAP
E3
63
63
61
62
60
60
60
60
60
F0
ENDCHAR
STARTCHAR Ldot
ENCODING 319
SWIDTH 964 0
DWIDTH 15 0
BBX 13 11 0 0
BITMAP
F000
6000
6000
6000
6000
6018
6018
6080
6080
6180
FF80
ENDCHAR
STARTCHAR ldot
ENCODING 320
SWIDTH 612 0
DWIDTH 10 0
BBX 8 11 0 0
BITMAP
E0
60
60
60
60
63
63
60
60
60
F0
ENDCHAR
STARTCHAR Lslash
ENCODING 321
SWIDTH 722 0
DWIDTH 10 0
BBX 9 11 0 0
BITMAP
F000
6000
6000
6800
7000
6000
E000
6080
6080
6180
FF80
ENDCHAR
STARTCHAR lslash
ENCODING 322
SWIDTH 352 0
DWIDTH 5 0
BBX 4 11 0 0
BITMAP
E0
60
60
60
70
E0
60
60
60
60
F0
ENDCHAR
STARTCHAR Nacute
ENCODING 323
SWIDTH 833 0
DWIDTH 12 0
BBX 11 15 0 0
BITMAP
0300
0600
0800
0000
E0E0
7040
7840
5C40
4C40
4640
4740
43C0
41C0
40C0
E040
ENDCHAR
STARTCHAR nacute
ENCODING 324
SWIDTH 685 0
DWIDTH 10 0
BBX 9 11 0 0
BITMAP
0600
0C00
1000
0000
EE00
7300
6300
6300
6300
6300
F780
ENDCHAR
STARTCHAR Ncommaaccent
ENCODING 325
SWIDTH 833 0
DWIDTH 12 0
BBX 11 17 0 -6
BITMAP
E0E0
7040
7840
5C40
4C40
4640
4740
43C0
41C0
40C0
E040
0000
0600
0600
0600
0200
0400
ENDCHAR
STARTCHAR ncommaaccent
ENCODING 326
SWIDTH 685 0
DWIDTH 10 0
BBX 9 13 0 -6
BITMAP
EE00
7300
6300
6300
6300
6300
F780
0000
0C00
0C00
0C00
0400
0800
ENDCHAR
STARTCHAR Ncaron
ENCODING 327
SWIDTH 833 0
DWIDTH 12 0
BBX 11 15 0 0
BITMAP
1B00
0E00
0400
0000
E0E0
7040
7840
5C40
4C40
4640
4740
43C0
41C0
40C0
E040
ENDCHAR
STARTCHAR ncaron
ENCODING 328
SWIDTH 685 0
DWIDTH 10 0
BBX 9 11 0 0
BITMAP
3600
1C00
0800
0000
EE00
7300
6300
6300
6300
6300
F780
ENDCHAR
STARTCHAR napostrophe
ENCODING 329
SWIDTH 914 0
DWIDTH 14 0
BBX 12 11 1 0
BITMAP
C000
C000
C000
4000
9DC0
0E60
0C60
0C60
0C60
0C60
1EF0
ENDCHAR
STARTCHAR Eng
ENCODING 330
SWIDTH 833 0
DWIDTH 12 0
BBX 11 14 0 -3
BITMAP
E0E0
7040
7840
5C40
4C40
4640
4740
43C0
41C0
40C0
E0C0
00C0
06C0
0380
ENDCHAR
STARTCHAR eng
ENCODING 331
SWIDTH 685 0
DWIDTH 10 0
BBX 8 10 0 -3
BITMAP
EE
73
63
63
63
63
F3
03
1B
0E
ENDCHAR
STARTCHAR Omacron
ENCODING 332
SWIDTH 833 0
DWIDTH 12 0
BBX 11 13 0 0
BITMAP
1F00
0000
1F00
71C0
60C0
C060
C060
C060
C060
C060
60C0
71C0
1F00
ENDCHAR
STARTCHAR omacron
ENCODING 333
SWIDTH 611 0
DWIDTH 9 0
BBX 8 9 0 0
BITMAP
3E
00
3C
66
C3
C3
C3
66
3C
ENDCHAR
STARTCHAR Obreve
ENCODING 334
SWIDTH 833 0
DWIDTH 12 0
BBX 11 15 0 0
BITMAP
1100
1B00
0E00
0000
1F00
71C0
60C0
C060
C060
C060
C060
C060
60C0
71C0
1F00
ENDCHAR
STARTCHAR obreve
ENCODING 335
SWIDTH 611 0
DWIDTH 9 0
BBX 8 11 0 0
BITMAP
22
36
1C
00
3C
66
C3
C3
C3
66
3C
ENDCHAR
STARTCHAR Ohungarumlaut
ENCODING 336
SWIDTH 833 0
DWIDTH 12 0
BBX 11 15 0 0
BITMAP
0CC0
1980
1100
0000
1F00
71C0
60C0
C060
C060
C060
C060
C060
60C0
71C0
1F00
ENDCHAR
STARTCHAR ohungarumlaut
ENCODING 337
SWIDTH 611 0
DWIDTH 9 0
BBX 8 11 0 0
BITMAP
33
66
44
00
3C
66
C3
C3
C3
66
3C
ENDCHAR
STARTCHAR OE
ENCODING 338
SWIDTH 1000 0
DWIDTH 17 0
BBX 16 11 0 0
BITMAP
1FFF
71C3
60C1
C0C9
C0C8
C0F8
C0C8
C0C9
60C1
71C3
1FFF
ENDCHAR
STARTCHAR oe
ENCODING 339
SWIDTH 907 0
DWIDTH 15 0
BBX 14 7 0 0
BITMAP
3CF0
6798
C30C
C3FC
C300
678C
3CF8
ENDCHAR
STARTCHAR Racute
ENCODING 340
SWIDTH 815 0
DWIDTH 12 0
BBX 11 15 0 0
BITMAP
0300
0600
0800
0000
FF00
6380
6180
6180
6300
7E00
6300
6300
6180
61A0
F1C0
ENDCHAR
STARTCHAR racute
ENCODING 341
SWIDTH 519 0
DWIDTH 7 0
BBX 7 11 0 0
BITMAP
06
0C
10
00
EE
76
60
60
60
60
F0
ENDCHAR
STARTCHAR Rcommaaccent
ENCODING 342
SWIDTH 815 0
DWIDTH 12 0
BBX 11 17 0 -6
BITMAP
FF00
6380
6180
6180
6300
7E00
6300
6300
6180
61A0
F1C0
0000
0C00
0C00
0C00
0400
0800
ENDCHAR
STARTCHAR rcommaaccent
ENCODING 343
SWIDTH 519 0
DWIDTH 7 0
BBX 7 13 0 -6
BITMAP
EE
76
60
60
60
60
F0
00
30
30
30
10
20
ENDCHAR
STARTCHAR Rcaron
ENCODING 344
SWIDTH 815 0
DWIDTH 12 0
BBX 11 15 0 0
BITMAP
3600
1C00
0800
0000
FF00
6380
6180
6180
6300
7E00
6300
6300
6180
61A0
F1C0
ENDCHAR
STARTCHAR rcaron
ENCODING 345
SWIDTH 519 0
DWIDTH 7 0
BBX 7 11 0 0
BITMAP
6C
38
10
00
EE
76
60
60
60
60
F0
ENDCHAR
STARTCHAR Sacute
ENCODING 346
SWIDTH 667 0
DWIDTH 10 0
BBX 9 15 0 0
BITMAP
0600
0C00
1000
0000
3D00
E300
C100
C100
F000
7E00
0F80
8180
8180
C380
BE00
ENDCHAR
STARTCHAR sacute
ENCODING 347
SWIDTH 500 0
DWIDTH 7 0
BBX 6 11 0 0
BITMAP
0C
18
20
00
7C
C4
E0
78
1C
8C
F8
ENDCHAR
STARTCHAR Scircumflex
ENCODING 348
SWIDTH 667 0
DWIDTH 10 0
BBX 9 15 0 0
BITMAP
0800
1C00
3600
0000
3D00
E300
C100
C100
F000
7E00
0F80
8180
8180
C380
BE00
ENDCHAR
STARTCHAR scircumflex
ENCODING 349
SWIDTH 500 0
DWIDTH 7 0
BBX 6 11 0 0
BITMAP
10
38
6C
00
7C
C4
E0
78
1C
8C
F8
ENDCHAR
STARTCHAR Scedilla
ENCODING 350
SWIDTH 667 0
DWIDTH 10 0
BBX 9 14 0 -3
BITMAP
3D00
E300
C100
C100
F000
7E00
0F80
8180
8180
C380
BE00
0800
0400
1C00
ENDCHAR
STARTCHAR scedilla
ENCODING 351
SWIDTH 500 0
DWIDTH 7 0
BBX 6 10 0 -3
BITMAP
7C
C4
E0
78
1C
8C
F8
20
10
70
ENDCHAR
STARTCHAR Scaron
ENCODING 352
SWIDTH 667 0
DWIDTH 10 0
BBX 9 15 0 0
BITMAP
3600
1C00
0800
0000
3D00
E300
C100
C100
F000
7E00
0F80
8180
8180
C380
BE00
ENDCHAR
STARTCHAR scaron
ENCODING 353
SWIDTH 500 0
DWIDTH 7 0
BBX 6 11 0 0
BITMAP
D8
70
20
00
7C
C4
E0
78
1C
8C
F8
ENDCHAR
STARTCHAR Tcommaaccent
ENCODING 354
SWIDTH 722 0
DWIDTH 11 0
BBX 10 14 0 -3
BITMAP
FFC0
CCC0
8C40
8C40
0C00
0C00
0C00
0C00
0C00
0C00
1E00
0400
0200
0E00
ENDCHAR
STARTCHAR tcommaaccent
ENCODING 355
SWIDTH 426 0
DWIDTH 6 0
BBX 6 13 0 -3
BITMAP
20
60
60
F8
60
60
60
64
64
38
10
08
38
ENDCHAR
STARTCHAR Tcaron
ENCODING 356
SWIDTH 722 0
DWIDTH 11 0
BBX 10 15 0 0
BITMAP
1B00
0E00
0400
0000
FFC0
CCC0
8C40
8C40
0C00
0C00
0C00
0C00
0C00
0C00
1E00
ENDCHAR
STARTCHAR tcaron
ENCODING 357
SWIDTH 646 0
DWIDTH 10 0
BBX 9 11 0 0
BITMAP
0180
2180
6180
6080
F900
6000
6000
6000
6400
6400
3800
ENDCHAR
STARTCHAR Tbar
ENCODING 358
SWIDTH 722 0
DWIDTH 11 0
BBX 10 11 0 0
BITMAP
FFC0
CCC0
8C40
8C40
0C00
1E00
0C00
0C00
0C00
0C00
1E00
ENDCHAR
STARTCHAR tbar
ENCODING 359
SWIDTH 426 0
DWIDTH 6 0
BBX 6 10 0 0
BITMAP
20
60
60
F8
60
60
78
64
64
38
ENDCHAR
STARTCHAR Utilde
ENCODING 360
SWIDTH 833 0
DWIDTH 12 0
BBX 11 14 0 0
BITMAP
0D00
1600
0000
F0E0
6040
6040
6040
6040
6040
6040
6040
6040
3080
1F00
ENDCHAR
STARTCHAR utilde
ENCODING 361
SWIDTH 685 0
DWIDTH 10 0
BBX 9 10 0 0
BITMAP
1A00
2C00
0000
E700
6300
6300
6300
6300
6700
3B80
ENDCHAR
STARTCHAR Umacron
ENCODING 362
SWIDTH 833 0
DWIDTH 12 0
BBX 11 13 0 0
BITMAP
1F00
0000
F0E0
6040
6040
6040
6040
6040
6040
6040
6040
3080
1F00
ENDCHAR
STARTCHAR umacron
ENCODING 363
SWIDTH 685 0
DWIDTH 10 0
BBX 9 9 0 0
BITMAP
3E00
0000
E700
6300
6300
6300
6300
6700
3B80
ENDCHAR
STARTCHAR Ubreve
ENCODING 364
SWIDTH 833 0
DWIDTH 12 0
BBX 11 15 0 0
BITMAP
1100
1B00
0E00
0000
F0E0
6040
6040
6040
6040
6040
6040
6040
6040
3080
1F00
ENDCHAR
STARTCHAR ubreve
ENCODING 365
SWIDTH 685 0
DWIDTH 10 0
BBX 9 11 0 0
BITMAP
2200
3600
1C00
0000
E700
6300
6300
6300
6300
6700
3B80
ENDCHAR
STARTCHAR Uring
ENCODING 366
SWIDTH 833 0
DWIDTH 12 0
BBX 11 15 0 0
BITMAP
0C00
1200
0C00
0000
F0E0
6040
6040
6040
6040
6040
6040
6040
6040
3080
1F00
ENDCHAR
STARTCHAR uring
ENCODING 367
SWIDTH 685 0
DWIDTH 10 0
BBX 9 11 0 0
BITMAP
1800
2400
1800
0000
E700
6300
6300
6300
6300
6700
3B80
ENDCHAR
STARTCHAR Uhungarumlaut
ENCODING 368
SWIDTH 833 0
DWIDTH 12 0
BBX 11 15 0 0
BITMAP
1980
3300
2200
0000
F0E0
6040
6040
6040
6040
6040
6040
6040
6040
3080
1F00
ENDCHAR
STARTCHAR uhungarumlaut
ENCODING 369
SWIDTH 685 0
DWIDTH 10 0
BBX 9 11 0 0
BITMAP
3300
6600
4400
0000
E700
6300
6300
6300
6300
6700
3B80
ENDCHAR
STARTCHAR Uogonek
ENCODING 370
SWIDTH 833 0
DWIDTH 12 0
BBX 11 14 0 -3
BITMAP
F0E0
6040
6040
6040
6040
6040
6040
6040
6040
3080
1F00
0400
0800
0E00
ENDCHAR
STARTCHAR uogonek
ENCODING 371
SWIDTH 685 0
DWIDTH 10 0
BBX 9 10 0 -3
BITMAP
E700
6300
6300
6300
6300
6700
3B80
0800
1000
1C00
ENDCHAR
STARTCHAR Wcircumflex
ENCODING 372
SWIDTH 981 0
DWIDTH 14 0
BBX 13 15 0 0
BITMAP
0200
0700
0D80
0000
F7B8
6310
6310
6310
35A0
35A0
35A0
35A0
18C0
18C0
18C0
ENDCHAR
STARTCHAR wcircumflex
ENCODING 373
SWIDTH 889 0
DWIDTH 12 0
BBX 13 11 -1 0
BITMAP
0200
0700
0D80
0000
F7B8
6310
6310
35A0
35A0
18C0
18C0
ENDCHAR
STARTCHAR Ycircumflex
ENCODING 374
SWIDTH 722 0
DWIDTH 11 0
BBX 10 15 0 0
BITMAP
0800
1C00
3600
0000
F1C0
6080
3100
3100
1A00
1A00
0C00
0C00
0C00
0C00
1E00
ENDCHAR
STARTCHAR ycircumflex
ENCODING 375
SWIDTH 611 0
DWIDTH 7 0
BBX 8 14 -1 -3
BITMAP
10
38
6C
00
F7
62
62
34
34
18
18
10
D0
E0
ENDCHAR
STARTCHAR Ydieresis
ENCODING 376
SWIDTH 722 0
DWIDTH 11 0
BBX 10 14 0 0
BITMAP
3300
3300
0000
F1C0
6080
3100
3100
1A00
1A00
0C00
0C00
0C00
0C00
1E00
ENDCHAR
STARTCHAR Zacute
ENCODING 377
SWIDTH 667 0
DWIDTH 9 0
BBX 8 15 0 0
BITMAP
06
0C
10
00
FF
C7
86
8E
1C
18
30
71
61
E3
FF
ENDCHAR
STARTCHAR zacute
ENCODING 378
SWIDTH 537 0
DWIDTH 7 0
BBX 6 11 0 0
BITMAP
0C
18
20
00
FC
8C
18
30
60
C4
FC
ENDCHAR
STARTCHAR Zdotaccent
ENCODING 379
SWIDTH 667 0
DWIDTH 9 0
BBX 8 14 0 0
BITMAP
18
18
00
FF
C7
86
8E
1C
18
30
71
61
E3
FF
ENDCHAR
STARTCHAR zdotaccent
ENCODING 380
SWIDTH 537 0
DWIDTH 7 0
BBX 6 10 0 0
BITMAP
30
30
00
FC
8C
18
30
60
C4
FC
ENDCHAR
STARTCHAR Zcaron
ENCODING 381
SWIDTH 667 0
DWIDTH 9 0
BBX 8 15 0 0
BITMAP
6C
38
10
00
FF
C7
86
8E
1C
18
30
71
61
E3
FF
ENDCHAR
STARTCHAR zcaron
ENCODING 382
SWIDTH 537 0
DWIDTH 7 0
BBX 6 11 0 0
BITMAP
D8
70
20
00
FC
8C
18
30
60
C4
FC
ENDCHAR
STARTCHAR uni0186
ENCODING 390
SWIDTH 778 0
DWIDTH 11 0
BBX 10 11 0 0
BITMAP
3E00
C380
8180
00C0
00C0
00C0
00C0
80C0
8180
C380
BE00
ENDCHAR
STARTCHAR uni0189
ENCODING 393
SWIDTH 833 0
DWIDTH 12 0
BBX 11 11 0 0
BITMAP
FF00
61C0
60C0
6060
6060
F860
6060
6060
60C0
61C0
FF00
ENDCHAR
STARTCHAR uni018E
ENCODING 398
SWIDTH 759 0
DWIDTH 10 0
BBX 9 11 0 0
BITMAP
FF80
C300
8300
9300
1300
1F00
1300
9300
8300
C300
FF80
ENDCHAR
STARTCHAR florin
ENCODING 402
SWIDTH 574 0
DWIDTH 9 0
BBX 9 14 -1 -3
BITMAP
0380
0580
0C00
0C00
3F00
0C00
0C00
0C00
1800
1800
1800
1800
D000
E000
ENDCHAR
STARTCHAR uni0197
ENCODING 407
SWIDTH 444 0
DWIDTH 7 0
BBX 4 11 1 0
BITMAP
F0
60
60
60
60
F0
60
60
60
60
F0
ENDCHAR
STARTCHAR uni019A
ENCODING 410
SWIDTH 352 0
DWIDTH 5 0
BBX 4 11 0 0
BITMAP
E0
60
60
60
60
F0
60
60
60
60
F0
ENDCHAR
STARTCHAR uni019D
ENCODING 413
SWIDTH 833 0
DWIDTH 12 0
BBX 13 14 -2 -3
BITMAP
3838
1C10
1E10
1710
1310
1190
11D0
10F0
1870
1830
1810
1800
D800
7000
ENDCHAR
STARTCHAR uni019F
ENCODING 415
SWIDTH 833 0
DWIDTH 12 0
BBX 11 11 0 0
BITMAP
1F00
71C0
60C0
C060
C060
FFE0
C060
C060
60C0
71C0
1F00
ENDCHAR
STARTCHAR Ohorn
ENCODING 416
SWIDTH 833 0
DWIDTH 12 0
BBX 12 11 0 0
BITMAP
1F30
71F0
60F0
C070
C060
C060
C060
C060
60C0
71C0
1F00
ENDCHAR
STARTCHAR ohorn
ENCODING 417
SWIDTH 611 0
DWIDTH 9 0
BBX 10 7 0 0
BITMAP
3CC0
66C0
C3C0
C340
C380
6600
3C00
ENDCHAR
STARTCHAR uni01A7
ENCODING 423
SWIDTH 667 0
DWIDTH 10 0
BBX 9 11 0 0
BITMAP
5E00
6380
4180
4180
0780
3F00
F800
C080
C080
E180
3E80
ENDCHAR
STARTCHAR uni01A8
ENCODING 424
SWIDTH 500 0
DWIDTH 7 0
BBX 6 7 0 0
BITMAP
F8
8C
1C
78
E0
C4
7C
ENDCHAR
STARTCHAR uni01AE
ENCODING 430
SWIDTH 722 0
DWIDTH 11 0
BBX 10 14 0 -3
BITMAP
FFC0
CCC0
8C40
8C40
0C00
0C00
0C00
0C00
0C00
0C00
0C00
0C00
0D80
0700
ENDCHAR
STARTCHAR Uhorn
ENCODING 431
SWIDTH 833 0
DWIDTH 12 0
BBX 12 11 0 0
BITMAP
F0F0
6070
6070
6050
6060
6040
6040
6040
6040
3080
1F00
ENDCHAR
STARTCHAR uhorn
ENCODING 432
SWIDTH 685 0
DWIDTH 10 0
BBX 10 7 0 0
BITMAP
E7C0
63C0
63C0
6340
6380
6700
3B80
ENDCHAR
STARTCHAR uni01B5
ENCODING 437
SWIDTH 667 0
DWIDTH 9 0
BBX 8 11 0 0
BITMAP
FF
C7
86
8E
1C
3C
30
71
61
E3
FF
ENDCHAR
STARTCHAR uni01B6
ENCODING 438
SWIDTH 537 0
DWIDTH 7 0
BBX 6 7 0 0
BITMAP
FC
8C
18
78
60
C4
FC
ENDCHAR
STARTCHAR uni01BB
ENCODING 443
SWIDTH 574 0
DWIDTH 8 0
BBX 7 11 0 0
BITMAP
78
CE
C6
06
06
FE
18
30
62
FE
FE
ENDCHAR
STARTCHAR uni01BC
ENCODING 444
SWIDTH 574 0
DWIDTH 8 0
BBX 7 11 0 0
BITMAP
7E
7C
40
40
5C
6E
06
06
C6
CE
78
ENDCHAR
STARTCHAR uni01C0
ENCODING 448
SWIDTH 606 0
DWIDTH 8 0
BBX 2 11 2 0
BITMAP
C0
C0
C0
C0
C0
C0
C0
C0
C0
C0
C0
ENDCHAR
STARTCHAR uni01C2
ENCODING 450
SWIDTH 606 0
DWIDTH 8 0
BBX 7 11 0 -1
BITMAP
18
18
18
18
FE
18
FE
18
18
18
18
ENDCHAR
STARTCHAR uni01C3
ENCODING 451
SWIDTH 296 0
DWIDTH 4 0
BBX 2 11 1 0
BITMAP
C0
C0
C0
C0
C0
80
80
00
C0
C0
C0
ENDCHAR
STARTCHAR uni01CD
ENCODING 461
SWIDTH 759 0
DWIDTH 11 0
BBX 10 15 0 0
BITMAP
1B00
0E00
0400
0000
0C00
0C00
1600
1600
1600
2300
2300
3F00
4180
4180
E3C0
ENDCHAR
STARTCHAR uni01CE
ENCODING 462
SWIDTH 611 0
DWIDTH 9 0
BBX 8 11 0 0
BITMAP
36
1C
08
00
3C
66
06
3E
C6
CE
77
ENDCHAR
STARTCHAR uni01CF
ENCODING 463
SWIDTH 444 0
DWIDTH 7 0
BBX 5 15 1 0
BITMAP
D8
70
20
00
F0
60
60
60
60
60
60
60
60
60
F0
ENDCHAR
STARTCHAR uni01D0
ENCODING 464
SWIDTH 370 0
DWIDTH 5 0
BBX 5 11 -1 0
BITMAP
D8
70
20
00
70
30
30
30
30
30
78
ENDCHAR
STARTCHAR uni01D1
ENCODING 465
SWIDTH 833 0
DWIDTH 12 0
BBX 11 15 0 0
BITMAP
1B00
0E00
0400
0000
1F00
71C0
60C0
C060
C060
C060
C060
C060
60C0
71C0
1F00
ENDCHAR
STARTCHAR uni01D2
ENCODING 466
SWIDTH 611 0
DWIDTH 9 0
BBX 8 11 0 0
BITMAP
36
1C
08
00
3C
66
C3
C3
C3
66
3C
ENDCHAR
STARTCHAR uni01D3
ENCODING 467
SWIDTH 833 0
DWIDTH 12 0
BBX 11 15 0 0
BITMAP
1B00
0E00
0400
0000
F0E0
6040
6040
6040
6040
6040
6040
6040
6040
3080
1F00
ENDCHAR
STARTCHAR uni01D4
ENCODING 468
SWIDTH 685 0
DWIDTH 10 0
BBX 9 11 0 0
BITMAP
3600
1C00
0800
0000
E700
6300
6300
6300
6300
6700
3B80
ENDCHAR
STARTCHAR uni01D5
ENCODING 469
SWIDTH 833 0
DWIDTH 12 0
BBX 11 16 0 0
BITMAP
1F00
0000
1980
1980
0000
F0E0
6040
6040
6040
6040
6040
6040
6040
6040
3080
1F00
ENDCHAR
STARTCHAR uni01D6
ENCODING 470
SWIDTH 685 0
DWIDTH 10 0
BBX 9 12 0 0
BITMAP
3E00
0000
3600
3600
0000
E700
6300
6300
6300
6300
6700
3B80
ENDCHAR
STARTCHAR uni01D7
ENCODING 471
SWIDTH 833 0
DWIDTH 12 0
BBX 11 18 0 0
BITMAP
0180
0300
0400
0000
1980
1980
0000
F0E0
6040
6040
6040
6040
6040
6040
6040
6040
3080
1F00
ENDCHAR
STARTCHAR uni01D8
ENCODING 472
SWIDTH 685 0
DWIDTH 10 0
BBX 9 14 0 0
BITMAP
0300
0600
0800
0000
3600
3600
0000
E700
6300
6300
6300
6300
6700
3B80
ENDCHAR
STARTCHAR uni01D9
ENCODING 473
SWIDTH 833 0
DWIDTH 12 0
BBX 11 18 0 0
BITMAP
1B00
0E00
0400
0000
1980
1980
0000
F0E0
6040
6040
6040
6040
6040
6040
6040
6040
3080
1F00
ENDCHAR
STARTCHAR uni01DA
ENCODING 474
SWIDTH 685 0
DWIDTH 10 0
BBX 9 14 0 0
BITMAP
3600
1C00
0800
0000
3600
3600
0000
E700
6300
6300
6300
6300
6700
3B80
ENDCHAR
STARTCHAR uni01DB
ENCODING 475
SWIDTH 833 0
DWIDTH 12 0
BBX 11 18 0 0
BITMAP
1800
0C00
0200
0000
1980
1980
0000
F0E0
6040
6040
6040
6040
6040
6040
6040
6040
3080
1F00
ENDCHAR
STARTCHAR uni01DC
ENCODING 476
SWIDTH 685 0
DWIDTH 10 0
BBX 9 14 0 0
BITMAP
3000
1800
0400
0000
3600
3600
0000
E700
6300
6300
6300
6300
6700
3B80
ENDCHAR
STARTCHAR uni01DD
ENCODING 477
SWIDTH 574 0
DWIDTH 9 0
BBX 8 7 0 0
BITMAP
7C
C6
03
FF
C3
66
3C
ENDCHAR
STARTCHAR uni01DE
ENCODING 478
SWIDTH 759 0
DWIDTH 11 0
BBX 10 16 0 0
BITMAP
1F00
0000
3300
3300
0000
0C00
0C00
1600
1600
1600
2300
2300
3F00
4180
4180
E3C0
ENDCHAR
STARTCHAR uni01DF
ENCODING 479
SWIDTH 611 0
DWIDTH 9 0
BBX 8 12 0 0
BITMAP
7C
00
6C
6C
00
3C
66
06
3E
C6
CE
77
ENDCHAR
STARTCHAR uni01E0
ENCODING 480
SWIDTH 759 0
DWIDTH 11 0
BBX 10 16 0 0
BITMAP
1F00
0000
0C00
0C00
0000
0C00
0C00
1600
1600
1600
2300
2300
3F00
4180
4180
E3C0
ENDCHAR
STARTCHAR uni01E1
ENCODING 481
SWIDTH 611 0
DWIDTH 9 0
BBX 8 12 0 0
BITMAP
3E
00
18
18
00
3C
66
06
3E
C6
CE
77
ENDCHAR
STARTCHAR uni01E2
ENCODING 482
SWIDTH 981 0
DWIDTH 15 0
BBX 15 13 -1 0
BITMAP
03E0
0000
0FFE
0586
0582
0992
0990
11F0
1F90
2192
2182
4186
E3FE
ENDCHAR
STARTCHAR uni01E3
ENCODING 483
SWIDTH 870 0
DWIDTH 14 0
BBX 13 9 0 0
BITMAP
0F80
0000
39E0
6730
0618
3FF8
C600
C718
79F0
ENDCHAR
STARTCHAR uni01E4
ENCODING 484
SWIDTH 833 0
DWIDTH 12 0
BBX 11 11 0 0
BITMAP
1F40
70C0
6040
C040
C000
C000
C3E0
C0C0
61E0
71C0
1E40
ENDCHAR
STARTCHAR uni01E5
ENCODING 485
SWIDTH 611 0
DWIDTH 8 0
BBX 7 11 0 -3
BITMAP
06
7C
C6
C6
7C
80
FC
7E
FE
86
7C
ENDCHAR
STARTCHAR Gcaron
ENCODING 486
SWIDTH 833 0
DWIDTH 12 0
BBX 11 15 0 0
BITMAP
1B00
0E00
0400
0000
1F40
70C0
6040
C040
C000
C000
C3E0
C0C0
60C0
71C0
1E40
ENDCHAR
STARTCHAR gcaron
ENCODING 487
SWIDTH 611 0
DWIDTH 8 0
BBX 7 15 0 -3
BITMAP
6C
38
10
00
06
7C
C6
C6
7C
80
FC
7E
82
86
7C
ENDCHAR
STARTCHAR uni01E8
ENCODING 488
SWIDTH 815 0
DWIDTH 12 0
BBX 11 15 0 0
BITMAP
3600
1C00
0800
0000
F3C0
6100
6200
6400
6800
7C00
6E00
6700
6380
61C0
F3E0
ENDCHAR
STARTCHAR uni01E9
ENCODING 489
SWIDTH 667 0
DWIDTH 9 0
BBX 8 15 0 0
BITMAP
D8
70
20
00
E0
60
60
60
67
64
68
78
6C
66
E7
ENDCHAR
STARTCHAR uni01EA
ENCODING 490
SWIDTH 833 0
DWIDTH 12 0
BBX 11 14 0 -3
BITMAP
1F00
71C0
60C0
C060
C060
C060
C060
C060
60C0
71C0
1F00
0400
0800
0E00
ENDCHAR
STARTCHAR uni01EB
ENCODING 491
SWIDTH 611 0
DWIDTH 9 0
BBX 8 10 0 -3
BITMAP
3C
66
C3
C3
C3
66
3C
08
10
1C
ENDCHAR
STARTCHAR uni01EC
ENCODING 492
SWIDTH 833 0
DWIDTH 12 0
BBX 11 16 0 -3
BITMAP
1F00
0000
1F00
71C0
60C0
C060
C060
C060
C060
C060
60C0
71C0
1F00
0400
0800
0E00
ENDCHAR
STARTCHAR uni01ED
ENCODING 493
SWIDTH 611 0
DWIDTH 9 0
BBX 8 12 0 -3
BITMAP
3E
00
3C
66
C3
C3
C3
66
3C
08
10
1C
ENDCHAR
STARTCHAR uni01F0
ENCODING 496
SWIDTH 352 0
DWIDTH 5 0
BBX 6 14 -2 -3
BITMAP
6C
38
10
00
38
18
18
18
18
18
18
18
D8
70
ENDCHAR
STARTCHAR uni01F4
ENCODING 500
SWIDTH 833 0
DWIDTH 12 0
BBX 11 15 0 0
BITMAP
0300
0600
0800
0000
1F40
70C0
6040
C040
C000
C000
C3E0
C0C0
60C0
71C0
1E40
ENDCHAR
STARTCHAR uni01F5
ENCODING 501
SWIDTH 611 0
DWIDTH 8 0
BBX 7 15 0 -3
BITMAP
06
0C
10
00
06
7C
C6
C6
7C
80
FC
7E
82
86
7C
ENDCHAR
STARTCHAR uni01F8
ENCODING 504
SWIDTH 833 0
DWIDTH 12 0
BBX 11 15 0 0
BITMAP
3000
1800
0400
0000
E0E0
7040
7840
5C40
4C40
4640
4740
43C0
41C0
40C0
E040
ENDCHAR
STARTCHAR uni01F9
ENCODING 505
SWIDTH 685 0
DWIDTH 10 0
BBX 9 11 0 0
BITMAP
6000
3000
0800
0000
EE00
7300
6300
6300
6300
6300
F780
ENDCHAR
STARTCHAR Aringacute
ENCODING 506
SWIDTH 759 0
DWIDTH 11 0
BBX 10 19 0 0
BITMAP
0300
0600
0800
0000
1E00
3300
3300
1E00
0000
0C00
1600
1600
1600
2300
2300
3F00
4180
4180
E3C0
ENDCHAR
STARTCHAR aringacute
ENCODING 507
SWIDTH 611 0
DWIDTH 9 0
BBX 8 15 0 0
BITMAP
06
0C
10
00
18
24
18
00
3C
66
06
3E
C6
CE
77
ENDCHAR
STARTCHAR AEacute
ENCODING 508
SWIDTH 981 0
DWIDTH 15 0
BBX 15 15 -1 0
BITMAP
0030
0060
0080
0000
0FFE
0586
0582
0992
0990
11F0
1F90
2192
2182
4186
E3FE
ENDCHAR
STARTCHAR aeacute
ENCODING 509
SWIDTH 870 0
DWIDTH 14 0
BBX 13 11 0 0
BITMAP
00C0
0180
0200
0000
39E0
6730
0618
3FF8
C600
C718
79F0
ENDCHAR
STARTCHAR Oslashacute
ENCODING 510
SWIDTH 833 0
DWIDTH 12 0
BBX 11 15 0 0
BITMAP
0180
0300
0400
0000
1F20
71C0
60C0
C160
C260
C460
C860
D060
60C0
71C0
9F00
ENDCHAR
STARTCHAR oslashacute
ENCODING 511
SWIDTH 611 0
DWIDTH 9 0
BBX 8 13 0 -1
BITMAP
06
0C
10
00
02
3C
6E
CB
D3
D3
66
3C
40
ENDCHAR
STARTCHAR uni0200
ENCODING 512
SWIDTH 759 0
DWIDTH 11 0
BBX 10 15 0 0
BITMAP
6600
3300
1100
0000
0C00
0C00
1600
1600
1600
2300
2300
3F00
4180
4180
E3C0
ENDCHAR
STARTCHAR uni0201
ENCODING 513
SWIDTH 611 0
DWIDTH 9 0
BBX 8 11 0 0
BITMAP
CC
66
22
00
3C
66
06
3E
C6
CE
77
ENDCHAR
STARTCHAR uni0202
ENCODING 514
SWIDTH 759 0
DWIDTH 11 0
BBX 10 15 0 0
BITMAP
0E00
1B00
1100
0000
0C00
0C00
1600
1600
1600
2300
2300
3F00
4180
4180
E3C0
ENDCHAR
STARTCHAR uni0203
ENCODING 515
SWIDTH 611 0
DWIDTH 9 0
BBX 8 11 0 0
BITMAP
1C
36
22
00
3C
66
06
3E
C6
CE
77
ENDCHAR
STARTCHAR uni0204
ENCODING 516
SWIDTH 759 0
DWIDTH 10 0
BBX 9 15 0 0
BITMAP
CC00
6600
2200
0000
FF80
6180
6080
6480
6400
7C00
6400
6480
6080
6180
FF80
ENDCHAR
STARTCHAR uni0205
ENCODING 517
SWIDTH 574 0
DWIDTH 9 0
BBX 8 11 0 0
BITMAP
CC
66
22
00
3C
66
C3
FF
C0
63
3E
ENDCHAR
STARTCHAR uni0206
ENCODING 518
SWIDTH 759 0
DWIDTH 10 0
BBX 9 15 0 0
BITMAP
1C00
3600
2200
0000
FF80
6180
6080
6480
6400
7C00
6400
6480
6080
6180
FF80
ENDCHAR
STARTCHAR uni0207
ENCODING 519
SWIDTH 574 0
DWIDTH 9 0
BBX 8 11 0 0
BITMAP
1C
36
22
00
3C
66
C3
FF
C0
63
3E
ENDCHAR
STARTCHAR uni0208
ENCODING 520
SWIDTH 444 0
DWIDTH 7 0
BBX 7 15 -1 0
BITMAP
CC
66
22
00
3C
18
18
18
18
18
18
18
18
18
3C
ENDCHAR
STARTCHAR uni0209
ENCODING 521
SWIDTH 370 0
DWIDTH 5 0
BBX 7 11 -2 0
BITMAP
CC
66
22
00
38
18
18
18
18
18
3C
ENDCHAR
STARTCHAR uni020A
ENCODING 522
SWIDTH 444 0
DWIDTH 7 0
BBX 5 15 1 0
BITMAP
70
D8
88
00
F0
60
60
60
60
60
60
60
60
60
F0
ENDCHAR
STARTCHAR uni020B
ENCODING 523
SWIDTH 370 0
DWIDTH 5 0
BBX 5 11 -1 0
BITMAP
70
D8
88
00
70
30
30
30
30
30
78
ENDCHAR
STARTCHAR uni020C
ENCODING 524
SWIDTH 833 0
DWIDTH 12 0
BBX 11 15 0 0
BITMAP
6600
3300
1100
0000
1F00
71C0
60C0
C060
C060
C060
C060
C060
60C0
71C0
1F00
ENDCHAR
STARTCHAR uni020D
ENCODING 525
SWIDTH 611 0
DWIDTH 9 0
BBX 8 11 0 0
BITMAP
CC
66
22
00
3C
66
C3
C3
C3
66
3C
ENDCHAR
STARTCHAR uni020E
ENCODING 526
SWIDTH 833 0
DWIDTH 12 0
BBX 11 15 0 0
BITMAP
0E00
1B00
1100
0000
1F00
71C0
60C0
C060
C060
C060
C060
C060
60C0
71C0
1F00
ENDCHAR
STARTCHAR uni020F
ENCODING 527
SWIDTH 611 0
DWIDTH 9 0
BBX 8 11 0 0
BITMAP
1C
36
22
00
3C
66
C3
C3
C3
66
3C
ENDCHAR
STARTCHAR uni0210
ENCODING 528
SWIDTH 815 0
DWIDTH 12 0
BBX 11 15 0 0
BITMAP
6600
3300
1100
0000
FF00
6380
6180
6180
6300
7E00
6300
6300
6180
61A0
F1C0
ENDCHAR
STARTCHAR uni0211
ENCODING 529
SWIDTH 519 0
DWIDTH 7 0
BBX 8 11 -1 0
BITMAP
CC
66
22
00
77
3B
30
30
30
30
78
ENDCHAR
STARTCHAR uni0212
ENCODING 530
SWIDTH 815 0
DWIDTH 12 0
BBX 11 15 0 0
BITMAP
1C00
3600
2200
0000
FF00
6380
6180
6180
6300
7E00
6300
6300
6180
61A0
F1C0
ENDCHAR
STARTCHAR uni0213
ENCODING 531
SWIDTH 519 0
DWIDTH 7 0
BBX 7 11 0 0
BITMAP
38
6C
44
00
EE
76
60
60
60
60
F0
ENDCHAR
STARTCHAR uni0214
ENCODING 532
SWIDTH 833 0
DWIDTH 12 0
BBX 11 15 0 0
BITMAP
6600
3300
1100
0000
F0E0
6040
6040
6040
6040
6040
6040
6040
6040
3080
1F00
ENDCHAR
STARTCHAR uni0215
ENCODING 533
SWIDTH 685 0
DWIDTH 10 0
BBX 9 11 0 0
BITMAP
CC00
6600
2200
0000
E700
6300
6300
6300
6300
6700
3B80
ENDCHAR
STARTCHAR uni0216
ENCODING 534
SWIDTH 833 0
DWIDTH 12 0
BBX 11 15 0 0
BITMAP
0E00
1B00
1100
0000
F0E0
6040
6040
6040
6040
6040
6040
6040
6040
3080
1F00
ENDCHAR
STARTCHAR uni0217
ENCODING 535
SWIDTH 685 0
DWIDTH 10 0
BBX 9 11 0 0
BITMAP
1C00
3600
2200
0000
E700
6300
6300
6300
6300
6700
3B80
ENDCHAR
STARTCHAR Scommaaccent
ENCODING 536
SWIDTH 667 0
DWIDTH 10 0
BBX 9 17 0 -6
BITMAP
3D00
E300
C100
C100
F000
7E00
0F80
8180
8180
C380
BE00
0000
0C00
0C00
0C00
0400
0800
ENDCHAR
STARTCHAR scommaaccent
ENCODING 537
SWIDTH 500 0
DWIDTH 7 0
BBX 6 13 0 -6
BITMAP
7C
C4
E0
78
1C
8C
F8
00
30
30
30
10
20
ENDCHAR
STARTCHAR Tcommaaccent
ENCODING 538
SWIDTH 722 0
DWIDTH 11 0
BBX 10 17 0 -6
BITMAP
FFC0
CCC0
8C40
8C40
0C00
0C00
0C00
0C00
0C00
0C00
1E00
0000
0C00
0C00
0C00
0400
0800
ENDCHAR
STARTCHAR tcommaaccent
ENCODING 539
SWIDTH 426 0
DWIDTH 6 0
BBX 6 16 0 -6
BITMAP
20
60
60
F8
60
60
60
64
64
38
00
30
30
30
10
20
ENDCHAR
STARTCHAR uni021E
ENCODING 542
SWIDTH 870 0
DWIDTH 12 0
BBX 11 15 0 0
BITMAP
1B00
0E00
0400
0000
F1E0
60C0
60C0
60C0
60C0
7FC0
60C0
60C0
60C0
60C0
F1E0
ENDCHAR
STARTCHAR uni021F
ENCODING 543
SWIDTH 685 0
DWIDTH 10 0
BBX 9 15 0 0
BITMAP
D800
7000
2000
0000
E000
6000
6000
6000
6E00
7300
6300
6300
6300
6300
F780
ENDCHAR
STARTCHAR uni0226
ENCODING 550
SWIDTH 759 0
DWIDTH 11 0
BBX 10 14 0 0
BITMAP
0C00
0C00
0000
0C00
0C00
1600
1600
1600
2300
2300
3F00
4180
4180
E3C0
ENDCHAR
STARTCHAR uni0227
ENCODING 551
SWIDTH 611 0
DWIDTH 9 0
BBX 8 10 0 0
BITMAP
18
18
00
3C
66
06
3E
C6
CE
77
ENDCHAR
STARTCHAR uni0228
ENCODING 552
SWIDTH 759 0
DWIDTH 10 0
BBX 9 14 0 -3
BITMAP
FF80
6180
6080
6480
6400
7C00
6400
6480
6080
6180
FF80
0800
0400
1C00
ENDCHAR
STARTCHAR uni0229
ENCODING 553
SWIDTH 574 0
DWIDTH 9 0
BBX 8 10 0 -3
BITMAP
3C
66
C3
FF
C0
63
3E
08
04
1C
ENDCHAR
STARTCHAR uni022A
ENCODING 554
SWIDTH 833 0
DWIDTH 12 0
BBX 11 16 0 0
BITMAP
1F00
0000
1980
1980
0000
1F00
71C0
60C0
C060
C060
C060
C060
C060
60C0
71C0
1F00
ENDCHAR
STARTCHAR uni022B
ENCODING 555
SWIDTH 611 0
DWIDTH 9 0
BBX 8 12 0 0
BITMAP
7C
00
6C
6C
00
3C
66
C3
C3
C3
66
3C
ENDCHAR
STARTCHAR uni022C
ENCODING 556
SWIDTH 833 0
DWIDTH 12 0
BBX 11 16 0 0
BITMAP
1F00
0000
1D00
2E00
0000
1F00
71C0
60C0
C060
C060
C060
C060
C060
60C0
71C0
1F00
ENDCHAR
STARTCHAR uni022D
ENCODING 557
SWIDTH 611 0
DWIDTH 9 0
BBX 8 12 0 0
BITMAP
7C
00
34
58
00
3C
66
C3
C3
C3
66
3C
ENDCHAR
STARTCHAR uni022E
ENCODING 558
SWIDTH 833 0
DWIDTH 12 0
BBX 11 14 0 0
BITMAP
0600
0600
0000
1F00
71C0
60C0
C060
C060
C060
C060
C060
60C0
71C0
1F00
ENDCHAR
STARTCHAR uni022F
ENCODING 559
SWIDTH 611 0
DWIDTH 9 0
BBX 8 10 0 0
BITMAP
18
18
00
3C
66
C3
C3
C3
66
3C
ENDCHAR
STARTCHAR uni0230
ENCODING 560
SWIDTH 833 0
DWIDTH 12 0
BBX 11 16 0 0
BITMAP
1F00
0000
0600
0600
0000
1F00
71C0
60C0
C060
C060
C060
C060
C060
60C0
71C0
1F00
ENDCHAR
STARTCHAR uni0231
ENCODING 561
SWIDTH 611 0
DWIDTH 9 0
BBX 8 12 0 0
BITMAP
3E
00
18
18
00
3C
66
C3
C3
C3
66
3C
ENDCHAR
STARTCHAR uni0232
ENCODING 562
SWIDTH 722 0
DWIDTH 11 0
BBX 10 13 0 0
BITMAP
3E00
0000
F1C0
6080
3100
3100
1A00
1A00
0C00
0C00
0C00
0C00
1E00
ENDCHAR
STARTCHAR uni0233
ENCODING 563
SWIDTH 611 0
DWIDTH 7 0
BBX 8 12 -1 -3
BITMAP
7C
00
F7
62
62
34
34
18
18
10
D0
E0
ENDCHAR
STARTCHAR uni0250
ENCODING 592
SWIDTH 611 0
DWIDTH 9 0
BBX 8 7 0 0
BITMAP
EE
73
63
7C
60
66
3C
ENDCHAR
STARTCHAR uni0254
ENCODING 596
SWIDTH 556 0
DWIDTH 8 0
BBX 7 7 0 0
BITMAP
78
CC
C6
06
86
CC
78
ENDCHAR
STARTCHAR uni0258
ENCODING 600
SWIDTH 574 0
DWIDTH 9 0
BBX 8 7 0 0
BITMAP
3C
66
C3
FF
03
C6
7C
ENDCHAR
STARTCHAR uni0259
ENCODING 601
SWIDTH 574 0
DWIDTH 9 0
BBX 8 7 0 0
BITMAP
7C
C6
03
FF
C3
66
3C
ENDCHAR
STARTCHAR uni025F
ENCODING 607
SWIDTH 389 0
DWIDTH 6 0
BBX 6 11 0 -4
BITMAP
3C
18
18
18
18
18
7C
18
D8
D8
70
ENDCHAR
STARTCHAR uni0265
ENCODING 613
SWIDTH 685 0
DWIDTH 10 0
BBX 9 11 0 -4
BITMAP
F780
6300
6300
6300
6300
6700
3B00
0300
0300
0300
0380
ENDCHAR
STARTCHAR uni0275
ENCODING 629
SWIDTH 611 0
DWIDTH 9 0
BBX 8 7 0 0
BITMAP
3C
66
C3
FF
C3
66
3C
ENDCHAR
STARTCHAR uni0279
ENCODING 633
SWIDTH 519 0
DWIDTH 7 0
BBX 7 7 0 0
BITMAP
1E
0C
0C
0C
0C
DC
EE
ENDCHAR
STARTCHAR uni0287
ENCODING 647
SWIDTH 426 0
DWIDTH 6 0
BBX 6 10 0 0
BITMAP
70
98
98
18
18
18
7C
18
18
10
ENDCHAR
STARTCHAR uni0288
ENCODING 648
SWIDTH 426 0
DWIDTH 6 0
BBX 9 13 0 -3
BITMAP
2000
6000
6000
F800
6000
6000
6000
6C00
0C00
0C00
0C00
0D80
0700
ENDCHAR
STARTCHAR uni0289
ENCODING 649
SWIDTH 685 0
DWIDTH 10 0
BBX 9 7 0 0
BITMAP
E700
6300
6300
FF80
6300
6700
3B80
ENDCHAR
STARTCHAR uni028C
ENCODING 652
SWIDTH 611 0
DWIDTH 7 0
BBX 8 7 -1 0
BITMAP
18
18
2C
2C
46
46
EF
ENDCHAR
STARTCHAR uni028D
ENCODING 653
SWIDTH 889 0
DWIDTH 12 0
BBX 13 7 -1 0
BITMAP
18C0
18C0
2D60
2D60
4630
4630
EF78
ENDCHAR
STARTCHAR uni028E
ENCODING 654
SWIDTH 611 0
DWIDTH 7 0
BBX 8 10 -1 0
BITMAP
07
0B
08
18
18
2C
2C
46
46
EF
ENDCHAR
STARTCHAR uni029E
ENCODING 670
SWIDTH 667 0
DWIDTH 9 0
BBX 8 11 0 -4
BITMAP
E7
66
36
1E
16
26
E6
06
06
06
07
ENDCHAR
STARTCHAR uni02BB
ENCODING 699
SWIDTH 241 0
DWIDTH 4 0
BBX 2 5 0 6
BITMAP
40
80
C0
C0
C0
ENDCHAR
STARTCHAR afii57929
ENCODING 700
SWIDTH 241 0
DWIDTH 4 0
BBX 2 5 1 6
BITMAP
C0
C0
C0
40
80
ENDCHAR
STARTCHAR afii64937
ENCODING 701
SWIDTH 241 0
DWIDTH 4 0
BBX 2 5 1 6
BITMAP
C0
C0
C0
80
40
ENDCHAR
STARTCHAR circumflex
ENCODING 710
SWIDTH 333 0
DWIDTH 7 0
BBX 5 3 1 8
BITMAP
20
70
D8
ENDCHAR
STARTCHAR caron
ENCODING 711
SWIDTH 333 0
DWIDTH 7 0
BBX 5 3 1 8
BITMAP
D8
70
20
ENDCHAR
STARTCHAR uni02C8
ENCODING 712
SWIDTH 241 0
DWIDTH 3 0
BBX 2 4 0 7
BITMAP
C0
C0
C0
80
ENDCHAR
STARTCHAR macron
ENCODING 713
SWIDTH 333 0
DWIDTH 7 0
BBX 5 1 1 8
BITMAP
F8
ENDCHAR
STARTCHAR uni02CA
ENCODING 714
SWIDTH 333 0
DWIDTH 6 0
BBX 4 3 1 8
BITMAP
30
60
80
ENDCHAR
STARTCHAR uni02CB
ENCODING 715
SWIDTH 333 0
DWIDTH 6 0
BBX 4 3 1 8
BITMAP
C0
60
10
ENDCHAR
STARTCHAR uni02CD
ENCODING 717
SWIDTH 333 0
DWIDTH 7 0
BBX 5 1 1 -2
BITMAP
F8
ENDCHAR
STARTCHAR uni02CE
ENCODING 718
SWIDTH 333 0
DWIDTH 6 0
BBX 4 3 1 -4
BITMAP
C0
60
10
ENDCHAR
STARTCHAR uni02CF
ENCODING 719
SWIDTH 333 0
DWIDTH 6 0
BBX 4 3 1 -4
BITMAP
30
60
80
ENDCHAR
STARTCHAR breve
ENCODING 728
SWIDTH 333 0
DWIDTH 7 0
BBX 5 3 1 8
BITMAP
88
D8
70
ENDCHAR
STARTCHAR dotaccent
ENCODING 729
SWIDTH 333 0
DWIDTH 4 0
BBX 2 2 1 8
BITMAP
C0
C0
ENDCHAR
STARTCHAR ring
ENCODING 730
SWIDTH 333 0
DWIDTH 6 0
BBX 4 3 1 8
BITMAP
60
90
60
ENDCHAR
STARTCHAR ogonek
ENCODING 731
SWIDTH 333 0
DWIDTH 5 0
BBX 3 3 1 -3
BITMAP
40
80
E0
ENDCHAR
STARTCHAR tilde
ENCODING 732
SWIDTH 333 0
DWIDTH 7 0
BBX 5 2 1 8
BITMAP
68
B0
ENDCHAR
STARTCHAR hungarumlaut
ENCODING 733
SWIDTH 333 0
DWIDTH 9 0
BBX 7 3 1 8
BITMAP
66
CC
88
ENDCHAR
STARTCHAR uni02EE
ENCODING 750
SWIDTH 481 0
DWIDTH 7 0
BBX 5 5 1 6
BITMAP
D8
D8
D8
48
90
ENDCHAR
STARTCHAR uni037E
ENCODING 894
SWIDTH 278 0
DWIDTH 4 0
BBX 2 9 1 -2
BITMAP
C0
C0
C0
00
C0
C0
C0
40
80
ENDCHAR
STARTCHAR tonos
ENCODING 900
SWIDTH 333 0
DWIDTH 6 0
BBX 4 3 1 8
BITMAP
30
60
80
ENDCHAR
STARTCHAR dieresistonos
ENCODING 901
SWIDTH 333 0
DWIDTH 7 0
BBX 6 6 1 8
BITMAP
0C
18
20
00
D8
D8
ENDCHAR
STARTCHAR anoteleia
ENCODING 903
SWIDTH 278 0
DWIDTH 5 0
BBX 2 2 1 4
BITMAP
C0
C0
ENDCHAR
STARTCHAR mu
ENCODING 956
SWIDTH 685 0
DWIDTH 10 0
BBX 9 10 0 -3
BITMAP
E700
6300
6300
6300
6300
6700
7B80
4000
6000
6000
ENDCHAR
STARTCHAR uni1E00
ENCODING 7680
SWIDTH 759 0
DWIDTH 11 0
BBX 10 15 0 -4
BITMAP
0C00
0C00
1600
1600
1600
2300
2300
3F00
4180
4180
E3C0
0000
0C00
1200
0C00
ENDCHAR
STARTCHAR uni1E01
ENCODING 7681
SWIDTH 611 0
DWIDTH 9 0
BBX 8 11 0 -4
BITMAP
3C
66
06
3E
C6
CE
77
00
18
24
18
ENDCHAR
STARTCHAR uni1E02
ENCODING 7682
SWIDTH 778 0
DWIDTH 10 0
BBX 9 14 0 0
BITMAP
1800
1800
0000
FE00
6300
6300
6300
6600
7F00
6180
6180
6180
6380
FE00
ENDCHAR
STARTCHAR uni1E03
ENCODING 7683
SWIDTH 648 0
DWIDTH 10 0
BBX 9 14 0 0
BITMAP
3000
3000
0000
E000
6000
6000
6000
6E00
7300
6180
6180
6180
6300
5E00
ENDCHAR
STARTCHAR uni1E04
ENCODING 7684
SWIDTH 778 0
DWIDTH 10 0
BBX 9 14 0 -3
BITMAP
FE00
6300
6300
6300
6600
7F00
6180
6180
6180
6380
FE00
0000
1800
1800
ENDCHAR
STARTCHAR uni1E05
ENCODING 7685
SWIDTH 648 0
DWIDTH 10 0
BBX 9 14 0 -3
BITMAP
E000
6000
6000
6000
6E00
7300
6180
6180
6180
6300
5E00
0000
0C00
0C00
ENDCHAR
STARTCHAR uni1E06
ENCODING 7686
SWIDTH 778 0
DWIDTH 10 0
BBX 9 13 0 -2
BITMAP
FE00
6300
6300
6300
6600
7F00
6180
6180
6180
6380
FE00
0000
3E00
ENDCHAR
STARTCHAR uni1E07
ENCODING 7687
SWIDTH 648 0
DWIDTH 10 0
BBX 9 13 0 -2
BITMAP
E000
6000
6000
6000
6E00
7300
6180
6180
6180
6300
5E00
0000
3E00
ENDCHAR
STARTCHAR uni1E08
ENCODING 7688
SWIDTH 778 0
DWIDTH 11 0
BBX 10 18 0 -3
BITMAP
0300
0600
0800
0000
1F40
70C0
6040
C040
C000
C000
C000
C000
6040
70C0
1F00
0800
0400
1C00
ENDCHAR
STARTCHAR uni1E09
ENCODING 7689
SWIDTH 556 0
DWIDTH 8 0
BBX 7 14 0 -3
BITMAP
06
0C
10
00
3C
66
C6
C0
C2
66
3C
10
08
38
ENDCHAR
STARTCHAR uni1E0A
ENCODING 7690
SWIDTH 833 0
DWIDTH 12 0
BBX 11 14 0 0
BITMAP
0C00
0C00
0000
FF00
61C0
60C0
6060
6060
6060
6060
6060
60C0
61C0
FF00
ENDCHAR
STARTCHAR uni1E0B
ENCODING 7691
SWIDTH 667 0
DWIDTH 10 0
BBX 9 14 0 0
BITMAP
0600
0600
0000
0700
0300
0300
0300
3B00
6700
C300
C300
C300
6700
3B80
ENDCHAR
STARTCHAR uni1E0C
ENCODING 7692
SWIDTH 833 0
DWIDTH 12 0
BBX 11 14 0 -3
BITMAP
FF00
61C0
60C0
6060
6060
6060
6060
6060
60C0
61C0
FF00
0000
0C00
0C00
ENDCHAR
STARTCHAR uni1E0D
ENCODING 7693
SWIDTH 667 0
DWIDTH 10 0
BBX 9 14 0 -3
BITMAP
0700
0300
0300
0300
3B00
6700
C300
C300
C300
6700
3B80
0000
0C00
0C00
ENDCHAR
STARTCHAR uni1E0E
ENCODING 7694
SWIDTH 833 0
DWIDTH 12 0
BBX 11 13 0 -2
BITMAP
FF00
61C0
60C0
6060
6060
6060
6060
6060
60C0
61C0
FF00
0000
1F00
ENDCHAR
STARTCHAR uni1E0F
ENCODING 7695
SWIDTH 667 0
DWIDTH 10 0
BBX 9 13 0 -2
BITMAP
0700
0300
0300
0300
3B00
6700
C300
C300
C300
6700
3B80
0000
3E00
ENDCHAR
STARTCHAR uni1E10
ENCODING 7696
SWIDTH 833 0
DWIDTH 12 0
BBX 11 14 0 -3
BITMAP
FF00
61C0
60C0
6060
6060
6060
6060
6060
60C0
61C0
FF00
0400
0200
0E00
ENDCHAR
STARTCHAR uni1E11
ENCODING 7697
SWIDTH 667 0
DWIDTH 10 0
BBX 9 14 0 -3
BITMAP
0700
0300
0300
0300
3B00
6700
C300
C300
C300
6700
3B80
0800
0400
1C00
ENDCHAR
STARTCHAR uni1E12
ENCODING 7698
SWIDTH 833 0
DWIDTH 12 0
BBX 11 15 0 -4
BITMAP
FF00
61C0
60C0
6060
6060
6060
6060
6060
60C0
61C0
FF00
0000
0400
0E00
1B00
ENDCHAR
STARTCHAR uni1E13
ENCODING 7699
SWIDTH 667 0
DWIDTH 10 0
BBX 9 15 0 -4
BITMAP
0700
0300
0300
0300
3B00
6700
C300
C300
C300
6700
3B80
0000
0800
1C00
3600
ENDCHAR
STARTCHAR uni1E14
ENCODING 7700
SWIDTH 759 0
DWIDTH 10 0
BBX 9 17 0 0
BITMAP
3000
1800
0400
0000
3E00
0000
FF80
6180
6080
6480
6400
7C00
6400
6480
6080
6180
FF80
ENDCHAR
STARTCHAR uni1E15
ENCODING 7701
SWIDTH 574 0
DWIDTH 9 0
BBX 8 13 0 0
BITMAP
60
30
08
00
3E
00
3C
66
C3
FF
C0
63
3E
ENDCHAR
STARTCHAR uni1E16
ENCODING 7702
SWIDTH 759 0
DWIDTH 10 0
BBX 9 17 0 0
BITMAP
0300
0600
0800
0000
3E00
0000
FF80
6180
6080
6480
6400
7C00
6400
6480
6080
6180
FF80
ENDCHAR
STARTCHAR uni1E17
ENCODING 7703
SWIDTH 574 0
DWIDTH 9 0
BBX 8 13 0 0
BITMAP
06
0C
10
00
3E
00
3C
66
C3
FF
C0
63
3E
ENDCHAR
STARTCHAR uni1E18
ENCODING 7704
SWIDTH 759 0
DWIDTH 10 0
BBX 9 15 0 -4
BITMAP
FF80
6180
6080
6480
6400
7C00
6400
6480
6080
6180
FF80
0000
0800
1C00
3600
ENDCHAR
STARTCHAR uni1E19
ENCODING 7705
SWIDTH 574 0
DWIDTH 9 0
BBX 8 11 0 -4
BITMAP
3C
66
C3
FF
C0
63
3E
00
08
1C
36
ENDCHAR
STARTCHAR uni1E1A
ENCODING 7706
SWIDTH 759 0
DWIDTH 10 0
BBX 9 14 0 -3
BITMAP
FF80
6180
6080
6480
6400
7C00
6400
6480
6080
6180
FF80
0000
1A00
2C00
ENDCHAR
STARTCHAR uni1E1B
ENCODING 7707
SWIDTH 574 0
DWIDTH 9 0
BBX 8 10 0 -3
BITMAP
3C
66
C3
FF
C0
63
3E
00
1A
2C
ENDCHAR
STARTCHAR uni1E1C
ENCODING 7708
SWIDTH 759 0
DWIDTH 10 0
BBX 9 18 0 -3
BITMAP
2200
3600
1C00
0000
FF80
6180
6080
6480
6400
7C00
6400
6480
6080
6180
FF80
0800
0400
1C00
ENDCHAR
STARTCHAR uni1E1D
ENCODING 7709
SWIDTH 574 0
DWIDTH 9 0
BBX 8 14 0 -3
BITMAP
22
36
1C
00
3C
66
C3
FF
C0
63
3E
08
04
1C
ENDCHAR
STARTCHAR uni1E1E
ENCODING 7710
SWIDTH 722 0
DWIDTH 10 0
BBX 9 14 0 0
BITMAP
0C00
0C00
0000
FF80
6180
6080
6480
6400
7C00
6400
6400
6000
6000
F000
ENDCHAR
STARTCHAR uni1E1F
ENCODING 7711
SWIDTH 389 0
DWIDTH 6 0
BBX 6 14 0 0
BITMAP
30
30
00
38
6C
6C
60
F8
60
60
60
60
60
F0
ENDCHAR
STARTCHAR uni1E20
ENCODING 7712
SWIDTH 833 0
DWIDTH 12 0
BBX 11 13 0 0
BITMAP
1F00
0000
1F40
70C0
6040
C040
C000
C000
C3E0
C0C0
60C0
71C0
1E40
ENDCHAR
STARTCHAR uni1E21
ENCODING 7713
SWIDTH 611 0
DWIDTH 8 0
BBX 7 13 0 -3
BITMAP
7C
00
06
7C
C6
C6
7C
80
FC
7E
82
86
7C
ENDCHAR
STARTCHAR uni1E22
ENCODING 7714
SWIDTH 870 0
DWIDTH 12 0
BBX 11 14 0 0
BITMAP
0600
0600
0000
F1E0
60C0
60C0
60C0
60C0
7FC0
60C0
60C0
60C0
60C0
F1E0
ENDCHAR
STARTCHAR uni1E23
ENCODING 7715
SWIDTH 685 0
DWIDTH 10 0
BBX 9 14 0 0
BITMAP
3000
3000
0000
E000
6000
6000
6000
6E00
7300
6300
6300
6300
6300
F780
ENDCHAR
STARTCHAR uni1E24
ENCODING 7716
SWIDTH 870 0
DWIDTH 12 0
BBX 11 14 0 -3
BITMAP
F1E0
60C0
60C0
60C0
60C0
7FC0
60C0
60C0
60C0
60C0
F1E0
0000
0600
0600
ENDCHAR
STARTCHAR uni1E25
ENCODING 7717
SWIDTH 685 0
DWIDTH 10 0
BBX 9 14 0 -3
BITMAP
E000
6000
6000
6000
6E00
7300
6300
6300
6300
6300
F780
0000
0C00
0C00
ENDCHAR
STARTCHAR uni1E26
ENCODING 7718
SWIDTH 870 0
DWIDTH 12 0
BBX 11 14 0 0
BITMAP
1B00
1B00
0000
F1E0
60C0
60C0
60C0
60C0
7FC0
60C0
60C0
60C0
60C0
F1E0
ENDCHAR
STARTCHAR uni1E27
ENCODING 7719
SWIDTH 685 0
DWIDTH 10 0
BBX 9 14 0 0
BITMAP
D800
D800
0000
E000
6000
6000
6000
6E00
7300
6300
6300
6300
6300
F780
ENDCHAR
STARTCHAR uni1E28
ENCODING 7720
SWIDTH 870 0
DWIDTH 12 0
BBX 11 14 0 -3
BITMAP
F1E0
60C0
60C0
60C0
60C0
7FC0
60C0
60C0
60C0
60C0
F1E0
0400
0200
0E00
ENDCHAR
STARTCHAR uni1E29
ENCODING 7721
SWIDTH 685 0
DWIDTH 10 0
BBX 9 14 0 -3
BITMAP
E000
6000
6000
6000
6E00
7300
6300
6300
6300
6300
F780
0800
0400
1C00
ENDCHAR
STARTCHAR uni1E2A
ENCODING 7722
SWIDTH 870 0
DWIDTH 12 0
BBX 11 15 0 -4
BITMAP
F1E0
60C0
60C0
60C0
60C0
7FC0
60C0
60C0
60C0
60C0
F1E0
0000
1100
1B00
0E00
ENDCHAR
STARTCHAR uni1E2B
ENCODING 7723
SWIDTH 685 0
DWIDTH 10 0
BBX 9 15 0 -4
BITMAP
E000
6000
6000
6000
6E00
7300
6300
6300
6300
6300
F780
0000
2200
3600
1C00
ENDCHAR
STARTCHAR uni1E2C
ENCODING 7724
SWIDTH 444 0
DWIDTH 7 0
BBX 5 14 0 -3
BITMAP
78
30
30
30
30
30
30
30
30
30
78
00
68
B0
ENDCHAR
STARTCHAR uni1E2D
ENCODING 7725
SWIDTH 370 0
DWIDTH 5 0
BBX 5 13 -1 -3
BITMAP
30
30
00
70
30
30
30
30
30
78
00
68
B0
ENDCHAR
STARTCHAR uni1E2E
ENCODING 7726
SWIDTH 444 0
DWIDTH 7 0
BBX 6 18 0 0
BITMAP
0C
18
20
00
CC
CC
00
78
30
30
30
30
30
30
30
30
30
78
ENDCHAR
STARTCHAR uni1E2F
ENCODING 7727
SWIDTH 370 0
DWIDTH 5 0
BBX 6 14 -1 0
BITMAP
0C
18
20
00
CC
CC
00
70
30
30
30
30
30
78
ENDCHAR
STARTCHAR uni1E30
ENCODING 7728
SWIDTH 815 0
DWIDTH 12 0
BBX 11 15 0 0
BITMAP
0300
0600
0800
0000
F3C0
6100
6200
6400
6800
7C00
6E00
6700
6380
61C0
F3E0
ENDCHAR
STARTCHAR uni1E31
ENCODING 7729
SWIDTH 667 0
DWIDTH 9 0
BBX 8 15 0 0
BITMAP
0C
18
20
00
E0
60
60
60
67
64
68
78
6C
66
E7
ENDCHAR
STARTCHAR uni1E32
ENCODING 7730
SWIDTH 815 0
DWIDTH 12 0
BBX 11 14 0 -3
BITMAP
F3C0
6100
6200
6400
6800
7C00
6E00
6700
6380
61C0
F3E0
0000
0600
0600
ENDCHAR
STARTCHAR uni1E33
ENCODING 7731
SWIDTH 667 0
DWIDTH 9 0
BBX 8 14 0 -3
BITMAP
E0
60
60
60
67
64
68
78
6C
66
E7
00
18
18
ENDCHAR
STARTCHAR uni1E34
ENCODING 7732
SWIDTH 815 0
DWIDTH 12 0
BBX 11 13 0 -2
BITMAP
F3C0
6100
6200
6400
6800
7C00
6E00
6700
6380
61C0
F3E0
0000
1F00
ENDCHAR
STARTCHAR uni1E35
ENCODING 7733
SWIDTH 667 0
DWIDTH 9 0
BBX 8 13 0 -2
BITMAP
E0
60
60
60
67
64
68
78
6C
66
E7
00
7C
ENDCHAR
STARTCHAR uni1E36
ENCODING 7734
SWIDTH 722 0
DWIDTH 10 0
BBX 9 14 0 -3
BITMAP
F000
6000
6000
6000
6000
6000
6000
6080
6080
6180
FF80
0000
0C00
0C00
ENDCHAR
STARTCHAR uni1E37
ENCODING 7735
SWIDTH 352 0
DWIDTH 5 0
BBX 4 14 0 -3
BITMAP
E0
60
60
60
60
60
60
60
60
60
F0
00
60
60
ENDCHAR
STARTCHAR uni1E38
ENCODING 7736
SWIDTH 722 0
DWIDTH 10 0
BBX 9 16 0 -3
BITMAP
F800
0000
F000
6000
6000
6000
6000
6000
6000
6080
6080
6180
FF80
0000
0C00
0C00
ENDCHAR
STARTCHAR uni1E39
ENCODING 7737
SWIDTH 352 0
DWIDTH 5 0
BBX 5 16 -1 -3
BITMAP
F8
00
70
30
30
30
30
30
30
30
30
30
78
00
30
30
ENDCHAR
STARTCHAR uni1E3A
ENCODING 7738
SWIDTH 722 0
DWIDTH 10 0
BBX 9 13 0 -2
BITMAP
F000
6000
6000
6000
6000
6000
6000
6080
6080
6180
FF80
0000
3E00
ENDCHAR
STARTCHAR uni1E3B
ENCODING 7739
SWIDTH 352 0
DWIDTH 5 0
BBX 5 13 0 -2
BITMAP
E0
60
60
60
60
60
60
60
60
60
F0
00
F8
ENDCHAR
STARTCHAR uni1E3C
ENCODING 7740
SWIDTH 722 0
DWIDTH 10 0
BBX 9 15 0 -4
BITMAP
F000
6000
6000
6000
6000
6000
6000
6080
6080
6180
FF80
0000
0800
1C00
3600
ENDCHAR
STARTCHAR uni1E3D
ENCODING 7741
SWIDTH 352 0
DWIDTH 5 0
BBX 5 15 0 -4
BITMAP
E0
60
60
60
60
60
60
60
60
60
F0
00
20
70
D8
ENDCHAR
STARTCHAR uni1E3E
ENCODING 7742
SWIDTH 981 0
DWIDTH 14 0
BBX 13 15 0 0
BITMAP
00C0
0180
0200
0000
F078
7070
7070
58B0
58B0
58B0
4D30
4D30
4D30
4630
E678
ENDCHAR
STARTCHAR uni1E3F
ENCODING 7743
SWIDTH 963 0
DWIDTH 15 0
BBX 14 11 0 0
BITMAP
00C0
0180
0200
0000
EE70
7398
6318
6318
6318
6318
F7BC
ENDCHAR
STARTCHAR uni1E40
ENCODING 7744
SWIDTH 981 0
DWIDTH 14 0
BBX 13 14 0 0
BITMAP
0300
0300
0000
F078
7070
7070
58B0
58B0
58B0
4D30
4D30
4D30
4630
E678
ENDCHAR
STARTCHAR uni1E41
ENCODING 7745
SWIDTH 963 0
DWIDTH 15 0
BBX 14 10 0 0
BITMAP
0300
0300
0000
EE70
7398
6318
6318
6318
6318
F7BC
ENDCHAR
STARTCHAR uni1E42
ENCODING 7746
SWIDTH 981 0
DWIDTH 14 0
BBX 13 14 0 -3
BITMAP
F078
7070
7070
58B0
58B0
58B0
4D30
4D30
4D30
4630
E678
0000
0300
0300
ENDCHAR
STARTCHAR uni1E43
ENCODING 7747
SWIDTH 963 0
DWIDTH 15 0
BBX 14 10 0 -3
BITMAP
EE70
7398
6318
6318
6318
6318
F7BC
0000
0300
0300
ENDCHAR
STARTCHAR uni1E44
ENCODING 7748
SWIDTH 833 0
DWIDTH 12 0
BBX 11 14 0 0
BITMAP
0C00
0C00
0000
E0E0
7040
7840
5C40
4C40
4640
4740
43C0
41C0
40C0
E040
ENDCHAR
STARTCHAR uni1E45
ENCODING 7749
SWIDTH 685 0
DWIDTH 10 0
BBX 9 10 0 0
BITMAP
1800
1800
0000
EE00
7300
6300
6300
6300
6300
F780
ENDCHAR
STARTCHAR uni1E46
ENCODING 7750
SWIDTH 833 0
DWIDTH 12 0
BBX 11 14 0 -3
BITMAP
E0E0
7040
7840
5C40
4C40
4640
4740
43C0
41C0
40C0
E040
0000
0600
0600
ENDCHAR
STARTCHAR uni1E47
ENCODING 7751
SWIDTH 685 0
DWIDTH 10 0
BBX 9 10 0 -3
BITMAP
EE00
7300
6300
6300
6300
6300
F780
0000
0C00
0C00
ENDCHAR
STARTCHAR uni1E48
ENCODING 7752
SWIDTH 833 0
DWIDTH 12 0
BBX 11 13 0 -2
BITMAP
E0E0
7040
7840
5C40
4C40
4640
4740
43C0
41C0
40C0
E040
0000
1F00
ENDCHAR
STARTCHAR uni1E49
ENCODING 7753
SWIDTH 685 0
DWIDTH 10 0
BBX 9 9 0 -2
BITMAP
EE00
7300
6300
6300
6300
6300
F780
0000
3E00
ENDCHAR
STARTCHAR uni1E4A
ENCODING 7754
SWIDTH 833 0
DWIDTH 12 0
BBX 11 15 0 -4
BITMAP
E0E0
7040
7840
5C40
4C40
4640
4740
43C0
41C0
40C0
E040
0000
0400
0E00
1B00
ENDCHAR
STARTCHAR uni1E4B
ENCODING 7755
SWIDTH 685 0
DWIDTH 10 0
BBX 9 11 0 -4
BITMAP
EE00
7300
6300
6300
6300
6300
F780
0000
0800
1C00
3600
ENDCHAR
STARTCHAR uni1E4C
ENCODING 7756
SWIDTH 833 0
DWIDTH 12 0
BBX 11 18 0 0
BITMAP
0300
0600
0800
0000
1D00
2E00
0000
1F00
71C0
60C0
C060
C060
C060
C060
C060
60C0
71C0
1F00
ENDCHAR
STARTCHAR uni1E4D
ENCODING 7757
SWIDTH 611 0
DWIDTH 9 0
BBX 8 14 0 0
BITMAP
06
0C
10
00
34
58
00
3C
66
C3
C3
C3
66
3C
ENDCHAR
STARTCHAR uni1E4E
ENCODING 7758
SWIDTH 833 0
DWIDTH 12 0
BBX 11 17 0 0
BITMAP
1B00
1B00
0000
1D00
2E00
0000
1F00
71C0
60C0
C060
C060
C060
C060
C060
60C0
71C0
1F00
ENDCHAR
STARTCHAR uni1E4F
ENCODING 7759
SWIDTH 611 0
DWIDTH 9 0
BBX 8 13 0 0
BITMAP
6C
6C
00
34
58
00
3C
66
C3
C3
C3
66
3C
ENDCHAR
STARTCHAR uni1E50
ENCODING 7760
SWIDTH 833 0
DWIDTH 12 0
BBX 11 17 0 0
BITMAP
1800
0C00
0200
0000
1F00
0000
1F00
71C0
60C0
C060
C060
C060
C060
C060
60C0
71C0
1F00
ENDCHAR
STARTCHAR uni1E51
ENCODING 7761
SWIDTH 611 0
DWIDTH 9 0
BBX 8 13 0 0
BITMAP
60
30
08
00
3E
00
3C
66
C3
C3
C3
66
3C
ENDCHAR
STARTCHAR uni1E52
ENCODING 7762
SWIDTH 833 0
DWIDTH 12 0
BBX 11 17 0 0
BITMAP
0180
0300
0400
0000
1F00
0000
1F00
71C0
60C0
C060
C060
C060
C060
C060
60C0
71C0
1F00
ENDCHAR
STARTCHAR uni1E53
ENCODING 7763
SWIDTH 611 0
DWIDTH 9 0
BBX 8 13 0 0
BITMAP
06
0C
10
00
3E
00
3C
66
C3
C3
C3
66
3C
ENDCHAR
STARTCHAR uni1E54
ENCODING 7764
SWIDTH 759 0
DWIDTH 10 0
BBX 9 15 0 0
BITMAP
0300
0600
0800
0000
FF00
6380
6180
6180
6380
7E00
6000
6000
6000
6000
F000
ENDCHAR
STARTCHAR uni1E55
ENCODING 7765
SWIDTH 667 0
DWIDTH 10 0
BBX 9 14 0 -3
BITMAP
0600
0C00
1000
0000
EE00
7300
6180
6180
6180
7300
6E00
6000
6000
F000
ENDCHAR
STARTCHAR uni1E56
ENCODING 7766
SWIDTH 759 0
DWIDTH 10 0
BBX 9 14 0 0
BITMAP
0C00
0C00
0000
FF00
6380
6180
6180
6380
7E00
6000
6000
6000
6000
F000
ENDCHAR
STARTCHAR uni1E57
ENCODING 7767
SWIDTH 667 0
DWIDTH 10 0
BBX 9 13 0 -3
BITMAP
1800
1800
0000
EE00
7300
6180
6180
6180
7300
6E00
6000
6000
F000
ENDCHAR
STARTCHAR uni1E58
ENCODING 7768
SWIDTH 815 0
DWIDTH 12 0
BBX 11 14 0 0
BITMAP
0C00
0C00
0000
FF00
6380
6180
6180
6300
7E00
6300
6300
6180
61A0
F1C0
ENDCHAR
STARTCHAR uni1E59
ENCODING 7769
SWIDTH 519 0
DWIDTH 7 0
BBX 7 10 0 0
BITMAP
18
18
00
EE
76
60
60
60
60
F0
ENDCHAR
STARTCHAR uni1E5A
ENCODING 7770
SWIDTH 815 0
DWIDTH 12 0
BBX 11 14 0 -3
BITMAP
FF00
6380
6180
6180
6300
7E00
6300
6300
6180
61A0
F1C0
0000
0C00
0C00
ENDCHAR
STARTCHAR uni1E5B
ENCODING 7771
SWIDTH 519 0
DWIDTH 7 0
BBX 7 10 0 -3
BITMAP
EE
76
60
60
60
60
F0
00
30
30
ENDCHAR
STARTCHAR uni1E5C
ENCODING 7772
SWIDTH 815 0
DWIDTH 12 0
BBX 11 16 0 -3
BITMAP
3E00
0000
FF00
6380
6180
6180
6300
7E00
6300
6300
6180
61A0
F1C0
0000
0C00
0C00
ENDCHAR
STARTCHAR uni1E5D
ENCODING 7773
SWIDTH 519 0
DWIDTH 7 0
BBX 7 12 0 -3
BITMAP
7C
00
EE
76
60
60
60
60
F0
00
30
30
ENDCHAR
STARTCHAR uni1E5E
ENCODING 7774
SWIDTH 815 0
DWIDTH 12 0
BBX 11 13 0 -2
BITMAP
FF00
6380
6180
6180
6300
7E00
6300
6300
6180
61A0
F1C0
0000
1F00
ENDCHAR
STARTCHAR uni1E5F
ENCODING 7775
SWIDTH 519 0
DWIDTH 7 0
BBX 7 9 0 -2
BITMAP
EE
76
60
60
60
60
F0
00
F8
ENDCHAR
STARTCHAR uni1E60
ENCODING 7776
SWIDTH 667 0
DWIDTH 10 0
BBX 9 14 0 0
BITMAP
1800
1800
0000
3D00
E300
C100
C100
F000
7E00
0F80
8180
8180
C380
BE00
ENDCHAR
STARTCHAR uni1E61
ENCODING 7777
SWIDTH 500 0
DWIDTH 7 0
BBX 6 10 0 0
BITMAP
30
30
00
7C
C4
E0
78
1C
8C
F8
ENDCHAR
STARTCHAR uni1E62
ENCODING 7778
SWIDTH 667 0
DWIDTH 10 0
BBX 9 14 0 -3
BITMAP
3D00
E300
C100
C100
F000
7E00
0F80
8180
8180
C380
BE00
0000
0C00
0C00
ENDCHAR
STARTCHAR uni1E63
ENCODING 7779
SWIDTH 500 0
DWIDTH 7 0
BBX 6 10 0 -3
BITMAP
7C
C4
E0
78
1C
8C
F8
00
30
30
ENDCHAR
STARTCHAR uni1E64
ENCODING 7780
SWIDTH 667 0
DWIDTH 10 0
BBX 9 18 0 0
BITMAP
0C00
0C00
0000
0600
0C00
1000
0000
3D00
E300
C100
C100
F000
7E00
0F80
8180
8180
C380
BE00
ENDCHAR
STARTCHAR uni1E65
ENCODING 7781
SWIDTH 500 0
DWIDTH 7 0
BBX 6 14 0 0
BITMAP
18
18
00
0C
18
20
00
7C
C4
E0
78
1C
8C
F8
ENDCHAR
STARTCHAR uni1E66
ENCODING 7782
SWIDTH 667 0
DWIDTH 10 0
BBX 9 18 0 0
BITMAP
0C00
0C00
0000
3600
1C00
0800
0000
3D00
E300
C100
C100
F000
7E00
0F80
8180
8180
C380
BE00
ENDCHAR
STARTCHAR uni1E67
ENCODING 7783
SWIDTH 500 0
DWIDTH 7 0
BBX 6 14 0 0
BITMAP
30
30
00
D8
70
20
00
7C
C4
E0
78
1C
8C
F8
ENDCHAR
STARTCHAR uni1E68
ENCODING 7784
SWIDTH 667 0
DWIDTH 10 0
BBX 9 17 0 -3
BITMAP
1800
1800
0000
3D00
E300
C100
C100
F000
7E00
0F80
8180
8180
C380
BE00
0000
0C00
0C00
ENDCHAR
STARTCHAR uni1E69
ENCODING 7785
SWIDTH 500 0
DWIDTH 7 0
BBX 6 13 0 -3
BITMAP
30
30
00
7C
C4
E0
78
1C
8C
F8
00
30
30
ENDCHAR
STARTCHAR uni1E6A
ENCODING 7786
SWIDTH 722 0
DWIDTH 11 0
BBX 10 14 0 0
BITMAP
0C00
0C00
0000
FFC0
CCC0
8C40
8C40
0C00
0C00
0C00
0C00
0C00
0C00
1E00
ENDCHAR
STARTCHAR uni1E6B
ENCODING 7787
SWIDTH 426 0
DWIDTH 6 0
BBX 6 13 0 0
BITMAP
60
60
00
20
60
60
F8
60
60
60
64
64
38
ENDCHAR
STARTCHAR uni1E6C
ENCODING 7788
SWIDTH 722 0
DWIDTH 11 0
BBX 10 14 0 -3
BITMAP
FFC0
CCC0
8C40
8C40
0C00
0C00
0C00
0C00
0C00
0C00
1E00
0000
0C00
0C00
ENDCHAR
STARTCHAR uni1E6D
ENCODING 7789
SWIDTH 426 0
DWIDTH 6 0
BBX 6 13 0 -3
BITMAP
20
60
60
F8
60
60
60
64
64
38
00
30
30
ENDCHAR
STARTCHAR uni1E6E
ENCODING 7790
SWIDTH 722 0
DWIDTH 11 0
BBX 10 13 0 -2
BITMAP
FFC0
CCC0
8C40
8C40
0C00
0C00
0C00
0C00
0C00
0C00
1E00
0000
1F00
ENDCHAR
STARTCHAR uni1E6F
ENCODING 7791
SWIDTH 426 0
DWIDTH 6 0
BBX 6 12 0 -2
BITMAP
20
60
60
F8
60
60
60
64
64
38
00
7C
ENDCHAR
STARTCHAR uni1E70
ENCODING 7792
SWIDTH 722 0
DWIDTH 11 0
BBX 10 15 0 -4
BITMAP
FFC0
CCC0
8C40
8C40
0C00
0C00
0C00
0C00
0C00
0C00
1E00
0000
0400
0E00
1B00
ENDCHAR
STARTCHAR uni1E71
ENCODING 7793
SWIDTH 426 0
DWIDTH 6 0
BBX 6 14 0 -4
BITMAP
20
60
60
F8
60
60
60
64
64
38
00
10
38
6C
ENDCHAR
STARTCHAR uni1E72
ENCODING 7794
SWIDTH 833 0
DWIDTH 12 0
BBX 11 14 0 -3
BITMAP
F0E0
6040
6040
6040
6040
6040
6040
6040
6040
3080
1F00
0000
1B00
1B00
ENDCHAR
STARTCHAR uni1E73
ENCODING 7795
SWIDTH 685 0
DWIDTH 10 0
BBX 9 10 0 -3
BITMAP
E700
6300
6300
6300
6300
6700
3B80
0000
3600
3600
ENDCHAR
STARTCHAR uni1E74
ENCODING 7796
SWIDTH 833 0
DWIDTH 12 0
BBX 11 14 0 -3
BITMAP
F0E0
6040
6040
6040
6040
6040
6040
6040
6040
3080
1F00
0000
1A00
2C00
ENDCHAR
STARTCHAR uni1E75
ENCODING 7797
SWIDTH 685 0
DWIDTH 10 0
BBX 9 10 0 -3
BITMAP
E700
6300
6300
6300
6300
6700
3B80
0000
1A00
2C00
ENDCHAR
STARTCHAR uni1E76
ENCODING 7798
SWIDTH 833 0
DWIDTH 12 0
BBX 11 15 0 -4
BITMAP
F0E0
6040
6040
6040
6040
6040
6040
6040
6040
3080
1F00
0000
0400
0E00
1B00
ENDCHAR
STARTCHAR uni1E77
ENCODING 7799
SWIDTH 685 0
DWIDTH 10 0
BBX 9 11 0 -4
BITMAP
E700
6300
6300
6300
6300
6700
3B80
0000
0800
1C00
3600
ENDCHAR
STARTCHAR uni1E78
ENCODING 7800
SWIDTH 833 0
DWIDTH 12 0
BBX 11 18 0 0
BITMAP
0300
0600
0800
0000
0D00
1600
0000
F0E0
6040
6040
6040
6040
6040
6040
6040
6040
3080
1F00
ENDCHAR
STARTCHAR uni1E79
ENCODING 7801
SWIDTH 685 0
DWIDTH 10 0
BBX 9 14 0 0
BITMAP
0300
0600
0800
0000
1A00
2C00
0000
E700
6300
6300
6300
6300
6700
3B80
ENDCHAR
STARTCHAR uni1E7A
ENCODING 7802
SWIDTH 833 0
DWIDTH 12 0
BBX 11 16 0 0
BITMAP
1B00
1B00
0000
1F00
0000
F0E0
6040
6040
6040
6040
6040
6040
6040
6040
3080
1F00
ENDCHAR
STARTCHAR uni1E7B
ENCODING 7803
SWIDTH 685 0
DWIDTH 10 0
BBX 9 12 0 0
BITMAP
3600
3600
0000
3E00
0000
E700
6300
6300
6300
6300
6700
3B80
ENDCHAR
STARTCHAR uni1E7C
ENCODING 7804
SWIDTH 759 0
DWIDTH 11 0
BBX 10 14 0 0
BITMAP
1A00
2C00
0000
F1C0
6080
6080
3100
3100
3100
1A00
1A00
1A00
0C00
0C00
ENDCHAR
STARTCHAR uni1E7D
ENCODING 7805
SWIDTH 611 0
DWIDTH 7 0
BBX 8 10 -1 0
BITMAP
1A
2C
00
F7
62
62
34
34
18
18
ENDCHAR
STARTCHAR uni1E7E
ENCODING 7806
SWIDTH 759 0
DWIDTH 11 0
BBX 10 14 0 -3
BITMAP
F1C0
6080
6080
3100
3100
3100
1A00
1A00
1A00
0C00
0C00
0000
0C00
0C00
ENDCHAR
STARTCHAR uni1E7F
ENCODING 7807
SWIDTH 611 0
DWIDTH 7 0
BBX 8 10 -1 -3
BITMAP
F7
62
62
34
34
18
18
00
18
18
ENDCHAR
STARTCHAR Wgrave
ENCODING 7808
SWIDTH 981 0
DWIDTH 14 0
BBX 13 15 0 0
BITMAP
1800
0C00
0200
0000
F7B8
6310
6310
6310
35A0
35A0
35A0
35A0
18C0
18C0
18C0
ENDCHAR
STARTCHAR wgrave
ENCODING 7809
SWIDTH 889 0
DWIDTH 12 0
BBX 13 11 -1 0
BITMAP
1800
0C00
0200
0000
F7B8
6310
6310
35A0
35A0
18C0
18C0
ENDCHAR
STARTCHAR Wacute
ENCODING 7810
SWIDTH 981 0
DWIDTH 14 0
BBX 13 15 0 0
BITMAP
0180
0300
0400
0000
F7B8
6310
6310
6310
35A0
35A0
35A0
35A0
18C0
18C0
18C0
ENDCHAR
STARTCHAR wacute
ENCODING 7811
SWIDTH 889 0
DWIDTH 12 0
BBX 13 11 -1 0
BITMAP
0180
0300
0400
0000
F7B8
6310
6310
35A0
35A0
18C0
18C0
ENDCHAR
STARTCHAR Wdieresis
ENCODING 7812
SWIDTH 981 0
DWIDTH 14 0
BBX 13 14 0 0
BITMAP
0D80
0D80
0000
F7B8
6310
6310
6310
35A0
35A0
35A0
35A0
18C0
18C0
18C0
ENDCHAR
STARTCHAR wdieresis
ENCODING 7813
SWIDTH 889 0
DWIDTH 12 0
BBX 13 10 -1 0
BITMAP
0D80
0D80
0000
F7B8
6310
6310
35A0
35A0
18C0
18C0
ENDCHAR
STARTCHAR uni1E86
ENCODING 7814
SWIDTH 981 0
DWIDTH 14 0
BBX 13 14 0 0
BITMAP
0600
0600
0000
F7B8
6310
6310
6310
35A0
35A0
35A0
35A0
18C0
18C0
18C0
ENDCHAR
STARTCHAR uni1E87
ENCODING 7815
SWIDTH 889 0
DWIDTH 12 0
BBX 13 10 -1 0
BITMAP
0600
0600
0000
F7B8
6310
6310
35A0
35A0
18C0
18C0
ENDCHAR
STARTCHAR uni1E88
ENCODING 7816
SWIDTH 981 0
DWIDTH 14 0
BBX 13 14 0 -3
BITMAP
F7B8
6310
6310
6310
35A0
35A0
35A0
35A0
18C0
18C0
18C0
0000
0300
0300
ENDCHAR
STARTCHAR uni1E89
ENCODING 7817
SWIDTH 889 0
DWIDTH 12 0
BBX 13 10 -1 -3
BITMAP
F7B8
6310
6310
35A0
35A0
18C0
18C0
0000
0300
0300
ENDCHAR
STARTCHAR uni1E8A
ENCODING 7818
SWIDTH 722 0
DWIDTH 12 0
BBX 11 14 0 0
BITMAP
0C00
0C00
0000
F9E0
70C0
3080
1900
0E00
0E00
0E00
1300
2180
61C0
F3E0
ENDCHAR
STARTCHAR uni1E8B
ENCODING 7819
SWIDTH 611 0
DWIDTH 9 0
BBX 8 10 0 0
BITMAP
18
18
00
E7
76
3C
18
3C
4E
E7
ENDCHAR
STARTCHAR uni1E8C
ENCODING 7820
SWIDTH 722 0
DWIDTH 12 0
BBX 11 14 0 0
BITMAP
1B00
1B00
0000
F9E0
70C0
3080
1900
0E00
0E00
0E00
1300
2180
61C0
F3E0
ENDCHAR
STARTCHAR uni1E8D
ENCODING 7821
SWIDTH 611 0
DWIDTH 9 0
BBX 8 10 0 0
BITMAP
6C
6C
00
E7
76
3C
18
3C
4E
E7
ENDCHAR
STARTCHAR uni1E8E
ENCODING 7822
SWIDTH 722 0
DWIDTH 11 0
BBX 10 14 0 0
BITMAP
0C00
0C00
0000
F1C0
6080
3100
3100
1A00
1A00
0C00
0C00
0C00
0C00
1E00
ENDCHAR
STARTCHAR uni1E8F
ENCODING 7823
SWIDTH 611 0
DWIDTH 7 0
BBX 8 13 -1 -3
BITMAP
18
18
00
F7
62
62
34
34
18
18
10
D0
E0
ENDCHAR
STARTCHAR uni1E90
ENCODING 7824
SWIDTH 667 0
DWIDTH 9 0
BBX 8 15 0 0
BITMAP
08
1C
36
00
FF
C7
86
8E
1C
18
30
71
61
E3
FF
ENDCHAR
STARTCHAR uni1E91
ENCODING 7825
SWIDTH 537 0
DWIDTH 7 0
BBX 6 11 0 0
BITMAP
10
38
6C
00
FC
8C
18
30
60
C4
FC
ENDCHAR
STARTCHAR uni1E92
ENCODING 7826
SWIDTH 667 0
DWIDTH 9 0
BBX 8 14 0 -3
BITMAP
FF
C7
86
8E
1C
18
30
71
61
E3
FF
00
18
18
ENDCHAR
STARTCHAR uni1E93
ENCODING 7827
SWIDTH 537 0
DWIDTH 7 0
BBX 6 10 0 -3
BITMAP
FC
8C
18
30
60
C4
FC
00
30
30
ENDCHAR
STARTCHAR uni1E94
ENCODING 7828
SWIDTH 667 0
DWIDTH 9 0
BBX 8 13 0 -2
BITMAP
FF
C7
86
8E
1C
18
30
71
61
E3
FF
00
7C
ENDCHAR
STARTCHAR uni1E95
ENCODING 7829
SWIDTH 537 0
DWIDTH 7 0
BBX 6 9 0 -2
BITMAP
FC
8C
18
30
60
C4
FC
00
F8
ENDCHAR
STARTCHAR uni1E96
ENCODING 7830
SWIDTH 685 0
DWIDTH 10 0
BBX 9 13 0 -2
BITMAP
E000
6000
6000
6000
6E00
7300
6300
6300
6300
6300
F780
0000
3E00
ENDCHAR
STARTCHAR uni1E97
ENCODING 7831
SWIDTH 426 0
DWIDTH 6 0
BBX 6 13 0 0
BITMAP
D8
D8
00
20
60
60
F8
60
60
60
64
64
38
ENDCHAR
STARTCHAR uni1E98
ENCODING 7832
SWIDTH 889 0
DWIDTH 12 0
BBX 13 11 -1 0
BITMAP
0600
0900
0600
0000
F7B8
6310
6310
35A0
35A0
18C0
18C0
ENDCHAR
STARTCHAR uni1E99
ENCODING 7833
SWIDTH 611 0
DWIDTH 7 0
BBX 8 14 -1 -3
BITMAP
18
24
18
00
F7
62
62
34
34
18
18
10
D0
E0
ENDCHAR
STARTCHAR uni1EA0
ENCODING 7840
SWIDTH 759 0
DWIDTH 11 0
BBX 10 14 0 -3
BITMAP
0C00
0C00
1600
1600
1600
2300
2300
3F00
4180
4180
E3C0
0000
0C00
0C00
ENDCHAR
STARTCHAR uni1EA1
ENCODING 7841
SWIDTH 611 0
DWIDTH 9 0
BBX 8 10 0 -3
BITMAP
3C
66
06
3E
C6
CE
77
00
18
18
ENDCHAR
STARTCHAR uni1EA4
ENCODING 7844
SWIDTH 759 0
DWIDTH 11 0
BBX 10 19 0 0
BITMAP
0300
0600
0800
0000
0800
1C00
3600
0000
0C00
0C00
1600
1600
1600
2300
2300
3F00
4180
4180
E3C0
ENDCHAR
STARTCHAR uni1EA5
ENCODING 7845
SWIDTH 611 0
DWIDTH 9 0
BBX 8 15 0 0
BITMAP
06
0C
10
00
10
38
6C
00
3C
66
06
3E
C6
CE
77
ENDCHAR
STARTCHAR uni1EA6
ENCODING 7846
SWIDTH 759 0
DWIDTH 11 0
BBX 10 19 0 0
BITMAP
3000
1800
0400
0000
0800
1C00
3600
0000
0C00
0C00
1600
1600
1600
2300
2300
3F00
4180
4180
E3C0
ENDCHAR
STARTCHAR uni1EA7
ENCODING 7847
SWIDTH 611 0
DWIDTH 9 0
BBX 8 15 0 0
BITMAP
60
30
08
00
10
38
6C
00
3C
66
06
3E
C6
CE
77
ENDCHAR
STARTCHAR uni1EAA
ENCODING 7850
SWIDTH 759 0
DWIDTH 11 0
BBX 10 18 0 0
BITMAP
1A00
2C00
0000
0800
1C00
3600
0000
0C00
0C00
1600
1600
1600
2300
2300
3F00
4180
4180
E3C0
ENDCHAR
STARTCHAR uni1EAB
ENCODING 7851
SWIDTH 611 0
DWIDTH 9 0
BBX 8 14 0 0
BITMAP
34
58
00
10
38
6C
00
3C
66
06
3E
C6
CE
77
ENDCHAR
STARTCHAR uni1EAC
ENCODING 7852
SWIDTH 759 0
DWIDTH 11 0
BBX 10 18 0 -3
BITMAP
0400
0E00
1B00
0000
0C00
0C00
1600
1600
1600
2300
2300
3F00
4180
4180
E3C0
0000
0C00
0C00
ENDCHAR
STARTCHAR uni1EAD
ENCODING 7853
SWIDTH 611 0
DWIDTH 9 0
BBX 8 14 0 -3
BITMAP
08
1C
36
00
3C
66
06
3E
C6
CE
77
00
18
18
ENDCHAR
STARTCHAR uni1EAE
ENCODING 7854
SWIDTH 759 0
DWIDTH 11 0
BBX 10 19 0 0
BITMAP
0300
0600
0800
0000
1100
1B00
0E00
0000
0C00
0C00
1600
1600
1600
2300
2300
3F00
4180
4180
E3C0
ENDCHAR
STARTCHAR uni1EAF
ENCODING 7855
SWIDTH 611 0
DWIDTH 9 0
BBX 8 15 0 0
BITMAP
06
0C
10
00
22
36
1C
00
3C
66
06
3E
C6
CE
77
ENDCHAR
STARTCHAR uni1EB0
ENCODING 7856
SWIDTH 759 0
DWIDTH 11 0
BBX 10 19 0 0
BITMAP
3000
1800
0400
0000
1100
1B00
0E00
0000
0C00
0C00
1600
1600
1600
2300
2300
3F00
4180
4180
E3C0
ENDCHAR
STARTCHAR uni1EB1
ENCODING 7857
SWIDTH 611 0
DWIDTH 9 0
BBX 8 15 0 0
BITMAP
60
30
08
00
22
36
1C
00
3C
66
06
3E
C6
CE
77
ENDCHAR
STARTCHAR uni1EB4
ENCODING 7860
SWIDTH 759 0
DWIDTH 11 0
BBX 10 18 0 0
BITMAP
0D00
1600
0000
1100
1B00
0E00
0000
0C00
0C00
1600
1600
1600
2300
2300
3F00
4180
4180
E3C0
ENDCHAR
STARTCHAR uni1EB5
ENCODING 7861
SWIDTH 611 0
DWIDTH 9 0
BBX 8 14 0 0
BITMAP
1A
2C
00
22
36
1C
00
3C
66
06
3E
C6
CE
77
ENDCHAR
STARTCHAR uni1EB6
ENCODING 7862
SWIDTH 759 0
DWIDTH 11 0
BBX 10 18 0 -3
BITMAP
1100
1B00
0E00
0000
0C00
0C00
1600
1600
1600
2300
2300
3F00
4180
4180
E3C0
0000
0C00
0C00
ENDCHAR
STARTCHAR uni1EB7
ENCODING 7863
SWIDTH 611 0
DWIDTH 9 0
BBX 8 14 0 -3
BITMAP
22
36
1C
00
3C
66
06
3E
C6
CE
77
00
18
18
ENDCHAR
STARTCHAR uni1EB8
ENCODING 7864
SWIDTH 759 0
DWIDTH 10 0
BBX 9 14 0 -3
BITMAP
FF80
6180
6080
6480
6400
7C00
6400
6480
6080
6180
FF80
0000
0C00
0C00
ENDCHAR
STARTCHAR uni1EB9
ENCODING 7865
SWIDTH 574 0
DWIDTH 9 0
BBX 8 10 0 -3
BITMAP
3C
66
C3
FF
C0
63
3E
00
18
18
ENDCHAR
STARTCHAR uni1EBC
ENCODING 7868
SWIDTH 759 0
DWIDTH 10 0
BBX 9 14 0 0
BITMAP
1A00
2C00
0000
FF80
6180
6080
6480
6400
7C00
6400
6480
6080
6180
FF80
ENDCHAR
STARTCHAR uni1EBD
ENCODING 7869
SWIDTH 574 0
DWIDTH 9 0
BBX 8 10 0 0
BITMAP
1A
2C
00
3C
66
C3
FF
C0
63
3E
ENDCHAR
STARTCHAR uni1EBE
ENCODING 7870
SWIDTH 759 0
DWIDTH 10 0
BBX 9 19 0 0
BITMAP
0300
0600
0800
0000
0800
1C00
3600
0000
FF80
6180
6080
6480
6400
7C00
6400
6480
6080
6180
FF80
ENDCHAR
STARTCHAR uni1EBF
ENCODING 7871
SWIDTH 574 0
DWIDTH 9 0
BBX 8 15 0 0
BITMAP
06
0C
10
00
10
38
6C
00
3C
66
C3
FF
C0
63
3E
ENDCHAR
STARTCHAR uni1EC0
ENCODING 7872
SWIDTH 759 0
DWIDTH 10 0
BBX 9 19 0 0
BITMAP
3000
1800
0400
0000
0800
1C00
3600
0000
FF80
6180
6080
6480
6400
7C00
6400
6480
6080
6180
FF80
ENDCHAR
STARTCHAR uni1EC1
ENCODING 7873
SWIDTH 574 0
DWIDTH 9 0
BBX 8 15 0 0
BITMAP
60
30
08
00
10
38
6C
00
3C
66
C3
FF
C0
63
3E
ENDCHAR
STARTCHAR uni1EC4
ENCODING 7876
SWIDTH 759 0
DWIDTH 10 0
BBX 9 18 0 0
BITMAP
1A00
2C00
0000
0800
1C00
3600
0000
FF80
6180
6080
6480
6400
7C00
6400
6480
6080
6180
FF80
ENDCHAR
STARTCHAR uni1EC5
ENCODING 7877
SWIDTH 574 0
DWIDTH 9 0
BBX 8 14 0 0
BITMAP
34
58
00
10
38
6C
00
3C
66
C3
FF
C0
63
3E
ENDCHAR
STARTCHAR uni1EC6
ENCODING 7878
SWIDTH 759 0
DWIDTH 10 0
BBX 9 18 0 -3
BITMAP
0800
1C00
3600
0000
FF80
6180
6080
6480
6400
7C00
6400
6480
6080
6180
FF80
0000
0C00
0C00
ENDCHAR
STARTCHAR uni1EC7
ENCODING 7879
SWIDTH 574 0
DWIDTH 9 0
BBX 8 14 0 -3
BITMAP
08
1C
36
00
3C
66
C3
FF
C0
63
3E
00
18
18
ENDCHAR
STARTCHAR uni1ECA
ENCODING 7882
SWIDTH 444 0
DWIDTH 7 0
BBX 4 14 1 -3
BITMAP
F0
60
60
60
60
60
60
60
60
60
F0
00
60
60
ENDCHAR
STARTCHAR uni1ECB
ENCODING 7883
SWIDTH 370 0
DWIDTH 5 0
BBX 4 13 0 -3
BITMAP
60
60
00
E0
60
60
60
60
60
F0
00
60
60
ENDCHAR
STARTCHAR uni1ECC
ENCODING 7884
SWIDTH 833 0
DWIDTH 12 0
BBX 11 14 0 -3
BITMAP
1F00
71C0
60C0
C060
C060
C060
C060
C060
60C0
71C0
1F00
0000
0600
0600
ENDCHAR
STARTCHAR uni1ECD
ENCODING 7885
SWIDTH 611 0
DWIDTH 9 0
BBX 8 10 0 -3
BITMAP
3C
66
C3
C3
C3
66
3C
00
18
18
ENDCHAR
STARTCHAR uni1ED0
ENCODING 7888
SWIDTH 833 0
DWIDTH 12 0
BBX 11 19 0 0
BITMAP
0180
0300
0400
0000
0400
0E00
1B00
0000
1F00
71C0
60C0
C060
C060
C060
C060
C060
60C0
71C0
1F00
ENDCHAR
STARTCHAR uni1ED1
ENCODING 7889
SWIDTH 611 0
DWIDTH 9 0
BBX 8 15 0 0
BITMAP
06
0C
10
00
10
38
6C
00
3C
66
C3
C3
C3
66
3C
ENDCHAR
STARTCHAR uni1ED2
ENCODING 7890
SWIDTH 833 0
DWIDTH 12 0
BBX 11 19 0 0
BITMAP
1800
0C00
0200
0000
0400
0E00
1B00
0000
1F00
71C0
60C0
C060
C060
C060
C060
C060
60C0
71C0
1F00
ENDCHAR
STARTCHAR uni1ED3
ENCODING 7891
SWIDTH 611 0
DWIDTH 9 0
BBX 8 15 0 0
BITMAP
60
30
08
00
10
38
6C
00
3C
66
C3
C3
C3
66
3C
ENDCHAR
STARTCHAR uni1ED6
ENCODING 7894
SWIDTH 833 0
DWIDTH 12 0
BBX 11 18 0 0
BITMAP
0D00
1600
0000
0400
0E00
1B00
0000
1F00
71C0
60C0
C060
C060
C060
C060
C060
60C0
71C0
1F00
ENDCHAR
STARTCHAR uni1ED7
ENCODING 7895
SWIDTH 611 0
DWIDTH 9 0
BBX 8 14 0 0
BITMAP
34
58
00
10
38
6C
00
3C
66
C3
C3
C3
66
3C
ENDCHAR
STARTCHAR uni1ED8
ENCODING 7896
SWIDTH 833 0
DWIDTH 12 0
BBX 11 18 0 -3
BITMAP
0400
0E00
1B00
0000
1F00
71C0
60C0
C060
C060
C060
C060
C060
60C0
71C0
1F00
0000
0600
0600
ENDCHAR
STARTCHAR uni1ED9
ENCODING 7897
SWIDTH 611 0
DWIDTH 9 0
BBX 8 14 0 -3
BITMAP
08
1C
36
00
3C
66
C3
C3
C3
66
3C
00
18
18
ENDCHAR
STARTCHAR uni1EDA
ENCODING 7898
SWIDTH 833 0
DWIDTH 12 0
BBX 12 15 0 0
BITMAP
00C0
0180
0200
0000
1F30
71F0
60F0
C070
C060
C060
C060
C060
60C0
71C0
1F00
ENDCHAR
STARTCHAR uni1EDB
ENCODING 7899
SWIDTH 611 0
DWIDTH 9 0
BBX 10 11 0 0
BITMAP
0300
0600
0800
0000
3CC0
66C0
C3C0
C340
C380
6600
3C00
ENDCHAR
STARTCHAR uni1EDC
ENCODING 7900
SWIDTH 833 0
DWIDTH 12 0
BBX 12 15 0 0
BITMAP
0C00
0600
0100
0000
1F30
71F0
60F0
C070
C060
C060
C060
C060
60C0
71C0
1F00
ENDCHAR
STARTCHAR uni1EDD
ENCODING 7901
SWIDTH 611 0
DWIDTH 9 0
BBX 10 11 0 0
BITMAP
3000
1800
0400
0000
3CC0
66C0
C3C0
C340
C380
6600
3C00
ENDCHAR
STARTCHAR uni1EE0
ENCODING 7904
SWIDTH 833 0
DWIDTH 12 0
BBX 12 14 0 0
BITMAP
0680
0B00
0000
1F30
71F0
60F0
C070
C060
C060
C060
C060
60C0
71C0
1F00
ENDCHAR
STARTCHAR uni1EE1
ENCODING 7905
SWIDTH 611 0
DWIDTH 9 0
BBX 10 10 0 0
BITMAP
0D00
1600
0000
3CC0
66C0
C3C0
C340
C380
6600
3C00
ENDCHAR
STARTCHAR uni1EE2
ENCODING 7906
SWIDTH 833 0
DWIDTH 12 0
BBX 12 14 0 -3
BITMAP
1F30
71F0
60F0
C070
C060
C060
C060
C060
60C0
71C0
1F00
0000
0600
0600
ENDCHAR
STARTCHAR uni1EE3
ENCODING 7907
SWIDTH 611 0
DWIDTH 9 0
BBX 10 10 0 -3
BITMAP
3CC0
66C0
C3C0
C340
C380
6600
3C00
0000
1800
1800
ENDCHAR
STARTCHAR uni1EE4
ENCODING 7908
SWIDTH 833 0
DWIDTH 12 0
BBX 11 14 0 -3
BITMAP
F0E0
6040
6040
6040
6040
6040
6040
6040
6040
3080
1F00
0000
0C00
0C00
ENDCHAR
STARTCHAR uni1EE5
ENCODING 7909
SWIDTH 685 0
DWIDTH 10 0
BBX 9 10 0 -3
BITMAP
E700
6300
6300
6300
6300
6700
3B80
0000
0C00
0C00
ENDCHAR
STARTCHAR uni1EE8
ENCODING 7912
SWIDTH 833 0
DWIDTH 12 0
BBX 12 15 0 0
BITMAP
0180
0300
0400
0000
F0F0
6070
6070
6050
6060
6040
6040
6040
6040
3080
1F00
ENDCHAR
STARTCHAR uni1EE9
ENCODING 7913
SWIDTH 685 0
DWIDTH 10 0
BBX 10 11 0 0
BITMAP
0300
0600
0800
0000
E7C0
63C0
63C0
6340
6380
6700
3B80
ENDCHAR
STARTCHAR uni1EEA
ENCODING 7914
SWIDTH 833 0
DWIDTH 12 0
BBX 12 15 0 0
BITMAP
1800
0C00
0200
0000
F0F0
6070
6070
6050
6060
6040
6040
6040
6040
3080
1F00
ENDCHAR
STARTCHAR uni1EEB
ENCODING 7915
SWIDTH 685 0
DWIDTH 10 0
BBX 10 11 0 0
BITMAP
3000
1800
0400
0000
E7C0
63C0
63C0
6340
6380
6700
3B80
ENDCHAR
STARTCHAR uni1EEE
ENCODING 7918
SWIDTH 833 0
DWIDTH 12 0
BBX 12 14 0 0
BITMAP
0680
0B00
0000
F0F0
6070
6070
6050
6060
6040
6040
6040
6040
3080
1F00
ENDCHAR
STARTCHAR uni1EEF
ENCODING 7919
SWIDTH 685 0
DWIDTH 10 0
BBX 10 10 0 0
BITMAP
0D00
1600
0000
E7C0
63C0
63C0
6340
6380
6700
3B80
ENDCHAR
STARTCHAR uni1EF0
ENCODING 7920
SWIDTH 833 0
DWIDTH 12 0
BBX 12 14 0 -3
BITMAP
F0F0
6070
6070
6050
6060
6040
6040
6040
6040
3080
1F00
0000
0C00
0C00
ENDCHAR
STARTCHAR uni1EF1
ENCODING 7921
SWIDTH 685 0
DWIDTH 10 0
BBX 10 10 0 -3
BITMAP
E7C0
63C0
63C0
6340
6380
6700
3B80
0000
0C00
0C00
ENDCHAR
STARTCHAR Ygrave
ENCODING 7922
SWIDTH 722 0
DWIDTH 11 0
BBX 10 15 0 0
BITMAP
3000
1800
0400
0000
F1C0
6080
3100
3100
1A00
1A00
0C00
0C00
0C00
0C00
1E00
ENDCHAR
STARTCHAR ygrave
ENCODING 7923
SWIDTH 611 0
DWIDTH 7 0
BBX 8 14 -1 -3
BITMAP
60
30
08
00
F7
62
62
34
34
18
18
10
D0
E0
ENDCHAR
STARTCHAR uni1EF4
ENCODING 7924
SWIDTH 722 0
DWIDTH 11 0
BBX 10 14 0 -3
BITMAP
F1C0
6080
3100
3100
1A00
1A00
0C00
0C00
0C00
0C00
1E00
0000
0C00
0C00
ENDCHAR
STARTCHAR uni1EF5
ENCODING 7925
SWIDTH 611 0
DWIDTH 7 0
BBX 8 13 -1 -6
BITMAP
F7
62
62
34
34
18
18
10
D0
E0
00
30
30
ENDCHAR
STARTCHAR uni1EF8
ENCODING 7928
SWIDTH 722 0
DWIDTH 11 0
BBX 10 14 0 0
BITMAP
1A00
2C00
0000
F1C0
6080
3100
3100
1A00
1A00
0C00
0C00
0C00
0C00
1E00
ENDCHAR
STARTCHAR uni1EF9
ENCODING 7929
SWIDTH 611 0
DWIDTH 7 0
BBX 8 13 -1 -3
BITMAP
1A
2C
00
F7
62
62
34
34
18
18
10
D0
E0
ENDCHAR
STARTCHAR uni2000
ENCODING 8192
SWIDTH 500 0
DWIDTH 7 0
BBX 1 1 0 0
BITMAP
00
ENDCHAR
STARTCHAR uni2001
ENCODING 8193
SWIDTH 1000 0
DWIDTH 15 0
BBX 1 1 0 0
BITMAP
00
ENDCHAR
STARTCHAR uni2002
ENCODING 8194
SWIDTH 500 0
DWIDTH 7 0
BBX 1 1 0 0
BITMAP
00
ENDCHAR
STARTCHAR uni2003
ENCODING 8195
SWIDTH 1000 0
DWIDTH 15 0
BBX 1 1 0 0
BITMAP
00
ENDCHAR
STARTCHAR uni2004
ENCODING 8196
SWIDTH 333 0
DWIDTH 5 0
BBX 1 1 0 0
BITMAP
00
ENDCHAR
STARTCHAR uni2005
ENCODING 8197
SWIDTH 250 0
DWIDTH 4 0
BBX 1 1 0 0
BITMAP
00
ENDCHAR
STARTCHAR uni2006
ENCODING 8198
SWIDTH 167 0
DWIDTH 2 0
BBX 1 1 0 0
BITMAP
00
ENDCHAR
STARTCHAR uni2007
ENCODING 8199
SWIDTH 574 0
DWIDTH 8 0
BBX 1 1 0 0
BITMAP
00
ENDCHAR
STARTCHAR uni2008
ENCODING 8200
SWIDTH 278 0
DWIDTH 4 0
BBX 1 1 0 0
BITMAP
00
ENDCHAR
STARTCHAR uni2009
ENCODING 8201
SWIDTH 200 0
DWIDTH 3 0
BBX 1 1 0 0
BITMAP
00
ENDCHAR
STARTCHAR uni200A
ENCODING 8202
SWIDTH 100 0
DWIDTH 1 0
BBX 1 1 0 0
BITMAP
00
ENDCHAR
STARTCHAR uni200B
ENCODING 8203
SWIDTH 0 0
DWIDTH 0 0
BBX 1 1 0 0
BITMAP
00
ENDCHAR
STARTCHAR uni2010
ENCODING 8208
SWIDTH 333 0
DWIDTH 5 0
BBX 4 2 0 3
BITMAP
F0
F0
ENDCHAR
STARTCHAR uni2011
ENCODING 8209
SWIDTH 333 0
DWIDTH 5 0
BBX 4 2 0 3
BITMAP
F0
F0
ENDCHAR
STARTCHAR figuredash
ENCODING 8210
SWIDTH 500 0
DWIDTH 8 0
BBX 7 1 0 4
BITMAP
FE
ENDCHAR
STARTCHAR endash
ENCODING 8211
SWIDTH 500 0
DWIDTH 8 0
BBX 7 1 0 4
BITMAP
FE
ENDCHAR
STARTCHAR emdash
ENCODING 8212
SWIDTH 1000 0
DWIDTH 15 0
BBX 14 1 0 4
BITMAP
FFFC
ENDCHAR
STARTCHAR afii00208
ENCODING 8213
SWIDTH 1000 0
DWIDTH 15 0
BBX 14 1 0 4
BITMAP
FFFC
ENDCHAR
STARTCHAR quoteleft
ENCODING 8216
SWIDTH 241 0
DWIDTH 4 0
BBX 2 5 0 6
BITMAP
40
80
C0
C0
C0
ENDCHAR
STARTCHAR quoteright
ENCODING 8217
SWIDTH 241 0
DWIDTH 4 0
BBX 2 5 1 6
BITMAP
C0
C0
C0
40
80
ENDCHAR
STARTCHAR quotesinglbase
ENCODING 8218
SWIDTH 241 0
DWIDTH 4 0
BBX 2 5 1 -2
BITMAP
C0
C0
C0
40
80
ENDCHAR
STARTCHAR quotereversed
ENCODING 8219
SWIDTH 241 0
DWIDTH 4 0
BBX 2 5 1 6
BITMAP
C0
C0
C0
80
40
ENDCHAR
STARTCHAR quotedblleft
ENCODING 8220
SWIDTH 481 0
DWIDTH 7 0
BBX 5 5 0 6
BITMAP
48
90
D8
D8
D8
ENDCHAR
STARTCHAR quotedblright
ENCODING 8221
SWIDTH 481 0
DWIDTH 7 0
BBX 5 5 1 6
BITMAP
D8
D8
D8
48
90
ENDCHAR
STARTCHAR quotedblbase
ENCODING 8222
SWIDTH 481 0
DWIDTH 7 0
BBX 5 5 1 -2
BITMAP
D8
D8
D8
48
90
ENDCHAR
STARTCHAR uni201F
ENCODING 8223
SWIDTH 481 0
DWIDTH 7 0
BBX 5 5 1 6
BITMAP
D8
D8
D8
90
48
ENDCHAR
STARTCHAR dagger
ENCODING 8224
SWIDTH 500 0
DWIDTH 8 0
BBX 7 13 0 -2
BITMAP
38
10
92
FE
92
10
38
38
10
10
10
10
10
ENDCHAR
STARTCHAR daggerdbl
ENCODING 8225
SWIDTH 500 0
DWIDTH 8 0
BBX 7 13 0 -2
BITMAP
38
10
92
FE
92
10
38
10
92
FE
92
10
38
ENDCHAR
STARTCHAR bullet
ENCODING 8226
SWIDTH 606 0
DWIDTH 8 0
BBX 5 5 1 3
BITMAP
70
F8
F8
F8
70
ENDCHAR
STARTCHAR ellipsis
ENCODING 8230
SWIDTH 1000 0
DWIDTH 15 0
BBX 12 3 1 0
BITMAP
C630
C630
C630
ENDCHAR
STARTCHAR perthousand
ENCODING 8240
SWIDTH 1000 0
DWIDTH 19 0
BBX 18 11 0 0
BITMAP
308000
6F0000
C90000
CA0000
D20000
646180
04D340
099640
099640
11A680
10C300
ENDCHAR
STARTCHAR guilsinglleft
ENCODING 8249
SWIDTH 333 0
DWIDTH 5 0
BBX 4 5 0 1
BITMAP
10
60
C0
60
10
ENDCHAR
STARTCHAR guilsinglright
ENCODING 8250
SWIDTH 333 0
DWIDTH 5 0
BBX 4 5 0 1
BITMAP
80
60
30
60
80
ENDCHAR
STARTCHAR fraction
ENCODING 8260
SWIDTH 167 0
DWIDTH 3 0
BBX 3 11 0 0
BITMAP
20
20
20
20
40
40
40
80
80
80
80
ENDCHAR
STARTCHAR oneinferior
ENCODING 8321
SWIDTH 344 0
DWIDTH 5 0
BBX 4 6 0 -3
BITMAP
60
E0
60
60
60
F0
ENDCHAR
STARTCHAR twoinferior
ENCODING 8322
SWIDTH 344 0
DWIDTH 5 0
BBX 5 6 -1 -3
BITMAP
70
98
18
30
60
F8
ENDCHAR
STARTCHAR threeinferior
ENCODING 8323
SWIDTH 344 0
DWIDTH 5 0
BBX 5 6 -1 -3
BITMAP
70
98
30
18
98
70
ENDCHAR
STARTCHAR uni20A5
ENCODING 8357
SWIDTH 963 0
DWIDTH 15 0
BBX 14 11 0 -2
BITMAP
0080
0080
EFF0
7398
6318
6318
6318
6318
F7BC
0400
0400
ENDCHAR
STARTCHAR uni20A6
ENCODING 8358
SWIDTH 833 0
DWIDTH 12 0
BBX 11 11 0 0
BITMAP
E0E0
7040
7840
5C40
7FC0
4640
7FC0
43C0
41C0
40C0
E040
ENDCHAR
STARTCHAR uni20A9
ENCODING 8361
SWIDTH 981 0
DWIDTH 14 0
BBX 13 11 0 0
BITMAP
F7B8
6310
6310
6310
3FE0
35A0
3FE0
35A0
18C0
18C0
18C0
ENDCHAR
STARTCHAR Euro
ENCODING 8364
SWIDTH 778 0
DWIDTH 11 0
BBX 11 11 -1 0
BITMAP
0FA0
3860
3020
6020
FE00
6000
FE00
6000
3020
3860
0F80
ENDCHAR
STARTCHAR uni20AD
ENCODING 8365
SWIDTH 815 0
DWIDTH 12 0
BBX 11 11 0 0
BITMAP
F3C0
6100
6200
6400
6800
FFE0
6E00
6700
6380
61C0
F3E0
ENDCHAR
STARTCHAR uni2103
ENCODING 8451
SWIDTH 1158 0
DWIDTH 17 0
BBX 15 11 1 0
BITMAP
60FA
9386
9302
6602
0600
0600
0600
0600
0302
0386
00F8
ENDCHAR
STARTCHAR uni2109
ENCODING 8457
SWIDTH 1102 0
DWIDTH 16 0
BBX 14 11 1 0
BITMAP
67FC
930C
9304
6324
0320
03E0
0320
0320
0300
0300
0780
ENDCHAR
STARTCHAR trademark
ENCODING 8482
SWIDTH 1000 0
DWIDTH 18 0
BBX 17 7 0 4
BITMAP
FDC380
B4E700
30E700
30BB00
30BB00
309300
79D780
ENDCHAR
STARTCHAR uni212A
ENCODING 8490
SWIDTH 815 0
DWIDTH 12 0
BBX 11 11 0 0
BITMAP
F3C0
6100
6200
6400
6800
7C00
6E00
6700
6380
61C0
F3E0
ENDCHAR
STARTCHAR uni212B
ENCODING 8491
SWIDTH 759 0
DWIDTH 11 0
BBX 10 15 0 0
BITMAP
1E00
3300
3300
1E00
0000
0C00
1600
1600
1600
2300
2300
3F00
4180
4180
E3C0
ENDCHAR
STARTCHAR uni2132
ENCODING 8498
SWIDTH 722 0
DWIDTH 10 0
BBX 9 11 0 0
BITMAP
0780
0300
0300
1300
1300
1F00
1300
9300
8300
C300
FF80
ENDCHAR
STARTCHAR universal
ENCODING 8704
SWIDTH 759 0
DWIDTH 11 0
BBX 10 11 0 0
BITMAP
E3C0
4180
4180
3F00
2300
2300
1600
1600
1600
0C00
0C00
ENDCHAR
STARTCHAR existential
ENCODING 8707
SWIDTH 759 0
DWIDTH 10 0
BBX 9 11 0 0
BITMAP
FF80
C300
8300
9300
1300
1F00
1300
9300
8300
C300
FF80
ENDCHAR
STARTCHAR uni2204
ENCODING 8708
SWIDTH 759 0
DWIDTH 10 0
BBX 9 11 0 0
BITMAP
FF80
C300
8700
9700
1700
1F00
1B00
9B00
9B00
D300
FF80
ENDCHAR
STARTCHAR minus
ENCODING 8722
SWIDTH 606 0
DWIDTH 8 0
BBX 7 1 0 4
BITMAP
FE
ENDCHAR
STARTCHAR fraction
ENCODING 8725
SWIDTH 167 0
DWIDTH 3 0
BBX 3 11 0 0
BITMAP
20
20
20
20
40
40
40
80
80
80
80
ENDCHAR
STARTCHAR periodcentered
ENCODING 8729
SWIDTH 278 0
DWIDTH 5 0
BBX 2 2 1 4
BITMAP
C0
C0
ENDCHAR
STARTCHAR uni2236
ENCODING 8758
SWIDTH 278 0
DWIDTH 4 0
BBX 2 7 1 0
BITMAP
C0
C0
C0
00
C0
C0
C0
ENDCHAR
STARTCHAR uni2259
ENCODING 8793
SWIDTH 606 0
DWIDTH 8 0
BBX 7 7 0 3
BITMAP
10
38
6C
00
FE
00
FE
ENDCHAR
STARTCHAR uni225A
ENCODING 8794
SWIDTH 606 0
DWIDTH 8 0
BBX 7 7 0 3
BITMAP
6C
38
10
00
FE
00
FE
ENDCHAR
STARTCHAR notequal
ENCODING 8800
SWIDTH 606 0
DWIDTH 8 0
BBX 7 11 0 -1
BITMAP
04
04
0C
08
FE
18
FE
10
30
20
20
ENDCHAR
STARTCHAR equivalence
ENCODING 8801
SWIDTH 606 0
DWIDTH 8 0
BBX 7 5 0 2
BITMAP
FE
00
FE
00
FE
ENDCHAR
STARTCHAR uni2262
ENCODING 8802
SWIDTH 606 0
DWIDTH 8 0
BBX 7 11 0 -1
BITMAP
04
04
0C
FE
08
FE
10
FE
30
20
20
ENDCHAR
STARTCHAR lessequal
ENCODING 8804
SWIDTH 606 0
DWIDTH 8 0
BBX 7 9 0 -1
BITMAP
02
0E
38
E0
38
0E
02
00
FE
ENDCHAR
STARTCHAR greaterequal
ENCODING 8805
SWIDTH 606 0
DWIDTH 8 0
BBX 7 9 0 -1
BITMAP
80
E0
38
0E
38
E0
80
00
FE
ENDCHAR
STARTCHAR uni226E
ENCODING 8814
SWIDTH 606 0
DWIDTH 8 0
BBX 7 11 0 -1
BITMAP
04
04
0E
0E
38
F8
38
1E
32
20
20
ENDCHAR
STARTCHAR uni226F
ENCODING 8815
SWIDTH 606 0
DWIDTH 8 0
BBX 7 11 0 -1
BITMAP
04
04
8C
E8
38
1E
38
F0
B0
20
20
ENDCHAR
STARTCHAR uni2270
ENCODING 8816
SWIDTH 606 0
DWIDTH 8 0
BBX 7 11 0 -2
BITMAP
04
06
0E
38
E8
38
1E
12
30
FE
20
ENDCHAR
STARTCHAR uni2271
ENCODING 8817
SWIDTH 606 0
DWIDTH 8 0
BBX 7 11 0 -2
BITMAP
04
84
EC
38
0E
38
F0
90
30
FE
20
ENDCHAR
STARTCHAR fi
ENCODING -1
SWIDTH 685 0
DWIDTH 10 0
BBX 9 11 0 0
BITMAP
1E00
2300
6300
6000
FF00
6300
6300
6300
6300
6300
F780
ENDCHAR
STARTCHAR fl
ENCODING -1
SWIDTH 685 0
DWIDTH 10 0
BBX 9 11 0 0
BITMAP
1F00
2300
6300
6300
FF00
6300
6300
6300
6300
6300
F780
ENDCHAR
ENDFONT
